<svg width="48" height="46" viewBox="0 0 48 46" fill="none" xmlns="http://www.w3.org/2000/svg">
<path d="M41.5262 34.3949C40.0674 34.3967 38.6602 33.8557 37.5783 32.8772C37.5659 32.8684 37.5546 32.8581 37.5446 32.8466C37.1097 32.4479 36.7368 31.9866 36.4382 31.4779C35.9942 30.7195 35.2134 30.2031 34.3408 30.1878H34.2795C33.6209 30.1878 32.976 30.3766 32.4214 30.7319C31.8667 31.0871 31.4256 31.594 31.1502 32.1923C30.9514 32.6386 30.8515 33.1225 30.8573 33.611V39.2542C30.8701 40.9184 30.2607 42.5273 29.1487 43.7655C28.0934 44.9208 26.6359 45.6353 25.0273 45.6353C21.8072 45.6353 19.1974 42.7775 19.1974 39.2542V29.9581C19.1974 28.0495 17.6858 26.4348 15.7772 26.4175C14.9029 26.4097 14.0583 26.7342 13.4141 27.3254C12.7699 27.9165 12.3742 28.7302 12.307 29.6019V35.7769C12.307 37.409 11.6587 38.9742 10.5047 40.1284C9.35077 41.2826 7.7856 41.9311 6.1535 41.9314C4.5214 41.9311 2.95623 41.2826 1.80226 40.1284C0.648284 38.9742 -2.24431e-08 37.409 0 35.7769V6.94757C0 3.48961 2.75576 0.49707 6.15248 0.49707C9.42468 0.49707 12.0998 3.27222 12.2937 6.77611C12.2998 6.91186 12.3049 7.0476 12.3049 7.18437V19.8557C12.3701 20.7476 12.779 21.5793 13.4454 22.1755C14.1119 22.7717 14.9838 23.0859 15.8773 23.0517C16.7709 23.0176 17.6163 22.6378 18.2353 21.9924C18.8543 21.3471 19.1985 20.4866 19.1954 19.5924V17.744C19.1954 14.2217 21.8052 11.3649 25.0253 11.3649C28.2455 11.3649 30.8553 14.2228 30.8553 17.744V23.3892C30.8494 23.8784 30.9493 24.363 31.1482 24.81C31.4746 25.5207 32.0334 26.0991 32.7324 26.4499C33.4314 26.8007 34.2291 26.903 34.994 26.74C35.2751 26.6759 35.5391 26.5521 35.7681 26.3768C35.9971 26.2016 36.1856 25.9791 36.3208 25.7245L36.3362 25.6959C36.5962 25.213 36.9237 24.7697 37.3088 24.3793C37.3935 24.2905 37.4834 24.2057 37.5752 24.1231C38.2854 23.4816 39.1411 23.0226 40.0684 22.7857C40.9957 22.5489 41.9667 22.5413 42.8975 22.7637C43.8284 22.986 44.6911 23.4316 45.4113 24.062C46.1314 24.6924 46.6872 25.4886 47.0308 26.3818C47.3744 27.2751 47.4954 28.2386 47.3833 29.189C47.2712 30.1395 46.9295 31.0484 46.3876 31.8372C45.8457 32.6261 45.1199 33.2712 44.2729 33.7168C43.4259 34.1624 42.4832 34.3951 41.5262 34.3949Z" fill="white" fill-opacity="0.73"/>
</svg>
