<svg width="48" height="56" viewBox="0 0 48 56" fill="none" xmlns="http://www.w3.org/2000/svg">
<path d="M6.09917 55.9999C9.40859 55.9999 12.0914 53.3432 12.0914 50.0659C12.0914 46.7886 9.40859 44.1318 6.09917 44.1318C2.78975 44.1318 0.106934 46.7886 0.106934 50.0659C0.106934 53.3432 2.78975 55.9999 6.09917 55.9999Z" fill="url(#paint0_linear_610_2143)" fill-opacity="0.73"/>
<path d="M41.5262 33.8978C40.0674 33.8996 38.6602 33.3586 37.5783 32.3801C37.5659 32.3713 37.5546 32.361 37.5446 32.3495C37.1097 31.9509 36.7368 31.4896 36.4382 30.9808C35.9942 30.2225 35.2134 29.706 34.3408 29.6907H34.2795C33.6209 29.6907 32.976 29.8795 32.4214 30.2348C31.8667 30.5901 31.4256 31.0969 31.1502 31.6953C30.9514 32.1415 30.8515 32.6255 30.8573 33.114V38.7571C30.8701 40.4213 30.2607 42.0302 29.1487 43.2684C28.0934 44.4238 26.6359 45.1382 25.0273 45.1382C21.8072 45.1382 19.1974 42.2804 19.1974 38.7571V29.4611C19.1974 27.5524 17.6858 25.9378 15.7772 25.9204C14.9029 25.9127 14.0583 26.2371 13.4141 26.8283C12.7699 27.4194 12.3742 28.2331 12.307 29.1049V35.2798C12.307 36.9119 11.6587 38.4772 10.5047 39.6313C9.35077 40.7855 7.7856 41.434 6.1535 41.4343C4.5214 41.434 2.95623 40.7855 1.80226 39.6313C0.648284 38.4772 -2.24431e-08 36.9119 0 35.2798V6.4505C0 2.99254 2.75576 0 6.15248 0C9.42468 0 12.0998 2.77515 12.2937 6.27904C12.2998 6.41479 12.3049 6.55053 12.3049 6.6873V19.3587C12.3701 20.2505 12.779 21.0822 13.4454 21.6784C14.1119 22.2746 14.9838 22.5888 15.8773 22.5546C16.7709 22.5205 17.6163 22.1407 18.2353 21.4954C18.8543 20.85 19.1985 19.9895 19.1954 19.0953V17.2469C19.1954 13.7247 21.8052 10.8679 25.0253 10.8679C28.2455 10.8679 30.8553 13.7257 30.8553 17.2469V22.8922C30.8494 23.3813 30.9493 23.8659 31.1482 24.3129C31.4746 25.0236 32.0334 25.602 32.7324 25.9528C33.4314 26.3036 34.2291 26.4059 34.994 26.2429C35.2751 26.1789 35.5391 26.055 35.7681 25.8798C35.9971 25.7045 36.1856 25.482 36.3208 25.2274L36.3362 25.1988C36.5962 24.716 36.9237 24.2726 37.3088 23.8822C37.3935 23.7934 37.4834 23.7087 37.5752 23.626C38.2854 22.9845 39.1411 22.5255 40.0684 22.2886C40.9957 22.0518 41.9667 22.0442 42.8975 22.2666C43.8284 22.489 44.6911 22.9346 45.4113 23.565C46.1314 24.1953 46.6872 24.9915 47.0308 25.8848C47.3744 26.778 47.4954 27.7415 47.3833 28.6919C47.2712 29.6424 46.9295 30.5513 46.3876 31.3402C45.8457 32.129 45.1199 32.7741 44.2729 33.2197C43.4259 33.6653 42.4832 33.8981 41.5262 33.8978Z" fill="url(#paint1_linear_610_2143)" fill-opacity="0.73"/>
<defs>
<linearGradient id="paint0_linear_610_2143" x1="6.09917" y1="44.1318" x2="6.09917" y2="55.9999" gradientUnits="userSpaceOnUse">
<stop stop-color="white"/>
<stop offset="1" stop-color="#50F3FF"/>
</linearGradient>
<linearGradient id="paint1_linear_610_2143" x1="23.7119" y1="0" x2="23.7119" y2="45.1382" gradientUnits="userSpaceOnUse">
<stop stop-color="#D2045B"/>
<stop offset="1" stop-color="#50F3FF"/>
</linearGradient>
</defs>
</svg>
