<svg width="387" height="255" viewBox="0 0 387 255" fill="none" xmlns="http://www.w3.org/2000/svg">
<g clip-path="url(#clip0_613_1187)">
<g filter="url(#filter0_d_613_1187)">
<g clip-path="url(#clip1_613_1187)">
<rect x="18" y="40" width="351" height="195" rx="16" fill="#100B15"/>
<path opacity="0.5" d="M393.971 -90.5656C397.849 -97.0385 404.841 -101 412.386 -101H572.055C580.396 -101 585.55 -91.9037 581.263 -84.7491L472.029 97.5656C468.151 104.038 461.159 108 453.614 108H293.945C285.604 108 280.45 98.9037 284.737 91.7491L393.971 -90.5656Z" fill="#242629"/>
<path opacity="0.5" d="M431.971 -29.5656C435.849 -36.0385 442.841 -40 450.386 -40H610.055C618.396 -40 623.55 -30.9037 619.263 -23.7491L510.029 158.566C506.151 165.038 499.159 169 491.614 169H331.945C323.604 169 318.45 159.904 322.737 152.749L431.971 -29.5656Z" fill="#868C98"/>
<path d="M39.233 168V157.818H45.3778V158.912H40.4659V162.352H45.0597V163.446H40.4659V166.906H45.4574V168H39.233ZM49.6042 168.179C49.1203 168.179 48.6812 168.088 48.2867 167.906C47.8923 167.72 47.5791 167.453 47.3471 167.105C47.1151 166.754 46.9991 166.33 46.9991 165.832C46.9991 165.395 47.0853 165.04 47.2576 164.768C47.43 164.493 47.6603 164.278 47.9487 164.122C48.237 163.966 48.5552 163.85 48.9032 163.774C49.2545 163.695 49.6075 163.632 49.9622 163.585C50.4262 163.526 50.8024 163.481 51.0907 163.451C51.3824 163.418 51.5945 163.363 51.7271 163.287C51.863 163.211 51.9309 163.078 51.9309 162.889V162.849C51.9309 162.359 51.7967 161.978 51.5282 161.706C51.2631 161.434 50.8604 161.298 50.3201 161.298C49.76 161.298 49.3208 161.421 49.0026 161.666C48.6845 161.911 48.4607 162.173 48.3315 162.452L47.2178 162.054C47.4167 161.59 47.6819 161.229 48.0133 160.97C48.3481 160.708 48.7126 160.526 49.1071 160.423C49.5048 160.317 49.8959 160.264 50.2803 160.264C50.5256 160.264 50.8073 160.294 51.1255 160.354C51.447 160.41 51.7569 160.528 52.0552 160.707C52.3568 160.886 52.6071 161.156 52.8059 161.517C53.0048 161.878 53.1042 162.362 53.1042 162.969V168H51.9309V166.966H51.8713C51.7917 167.132 51.6591 167.309 51.4735 167.498C51.2879 167.687 51.041 167.848 50.7328 167.98C50.4245 168.113 50.0483 168.179 49.6042 168.179ZM49.7832 167.125C50.2472 167.125 50.6383 167.034 50.9565 166.852C51.278 166.669 51.5199 166.434 51.6823 166.146C51.8481 165.857 51.9309 165.554 51.9309 165.236V164.162C51.8812 164.222 51.7718 164.276 51.6028 164.326C51.4371 164.372 51.2448 164.414 51.0261 164.45C50.8107 164.483 50.6002 164.513 50.3947 164.54C50.1925 164.563 50.0285 164.583 49.9025 164.599C49.5976 164.639 49.3125 164.704 49.0474 164.793C48.7856 164.879 48.5734 165.01 48.411 165.186C48.2519 165.358 48.1724 165.594 48.1724 165.892C48.1724 166.3 48.3232 166.608 48.6248 166.817C48.9297 167.022 49.3159 167.125 49.7832 167.125ZM55.1617 168V160.364H56.2952V161.517H56.3748C56.514 161.139 56.7659 160.833 57.1305 160.597C57.4951 160.362 57.906 160.244 58.3634 160.244C58.4496 160.244 58.5573 160.246 58.6866 160.249C58.8158 160.253 58.9136 160.258 58.9799 160.264V161.457C58.9401 161.447 58.849 161.433 58.7065 161.413C58.5673 161.389 58.4198 161.378 58.264 161.378C57.8928 161.378 57.5613 161.456 57.2697 161.612C56.9813 161.764 56.7526 161.976 56.5836 162.248C56.4179 162.516 56.335 162.823 56.335 163.168V168H55.1617ZM61.46 163.406V168H60.2867V160.364H61.4202V161.557H61.5197C61.6986 161.169 61.9704 160.857 62.335 160.622C62.6996 160.384 63.1702 160.264 63.7469 160.264C64.264 160.264 64.7164 160.37 65.1042 160.582C65.492 160.791 65.7936 161.109 66.009 161.537C66.2244 161.961 66.3322 162.498 66.3322 163.148V168H65.1589V163.227C65.1589 162.627 65.0031 162.16 64.6915 161.825C64.38 161.487 63.9524 161.318 63.4089 161.318C63.0343 161.318 62.6996 161.399 62.4046 161.562C62.1129 161.724 61.8826 161.961 61.7136 162.273C61.5445 162.584 61.46 162.962 61.46 163.406ZM68.3922 168V160.364H69.5655V168H68.3922ZM68.9888 159.091C68.7601 159.091 68.5629 159.013 68.3971 158.857C68.2347 158.701 68.1535 158.514 68.1535 158.295C68.1535 158.077 68.2347 157.889 68.3971 157.734C68.5629 157.578 68.7601 157.5 68.9888 157.5C69.2174 157.5 69.413 157.578 69.5754 157.734C69.7411 157.889 69.824 158.077 69.824 158.295C69.824 158.514 69.7411 158.701 69.5754 158.857C69.413 159.013 69.2174 159.091 68.9888 159.091ZM72.8037 163.406V168H71.6304V160.364H72.764V161.557H72.8634C73.0424 161.169 73.3141 160.857 73.6787 160.622C74.0433 160.384 74.514 160.264 75.0907 160.264C75.6077 160.264 76.0601 160.37 76.4479 160.582C76.8357 160.791 77.1373 161.109 77.3527 161.537C77.5682 161.961 77.6759 162.498 77.6759 163.148V168H76.5026V163.227C76.5026 162.627 76.3468 162.16 76.0353 161.825C75.7237 161.487 75.2961 161.318 74.7526 161.318C74.3781 161.318 74.0433 161.399 73.7483 161.562C73.4567 161.724 73.2263 161.961 73.0573 162.273C72.8882 162.584 72.8037 162.962 72.8037 163.406ZM82.8183 171.023C82.2515 171.023 81.7643 170.95 81.3566 170.804C80.9489 170.661 80.6092 170.473 80.3374 170.237C80.069 170.005 79.8552 169.757 79.6961 169.491L80.6308 168.835C80.7368 168.974 80.8711 169.134 81.0335 169.312C81.1959 169.495 81.4179 169.652 81.6997 169.785C81.9847 169.921 82.3576 169.989 82.8183 169.989C83.4347 169.989 83.9435 169.839 84.3445 169.541C84.7456 169.243 84.9461 168.776 84.9461 168.139V166.588H84.8467C84.7605 166.727 84.6379 166.9 84.4788 167.105C84.323 167.307 84.0976 167.488 83.8026 167.647C83.511 167.803 83.1166 167.881 82.6194 167.881C82.0029 167.881 81.4494 167.735 80.9589 167.443C80.4717 167.152 80.0855 166.727 79.8005 166.17C79.5188 165.614 79.3779 164.937 79.3779 164.142C79.3779 163.36 79.5155 162.679 79.7906 162.099C80.0657 161.515 80.4485 161.065 80.939 160.746C81.4295 160.425 81.9963 160.264 82.6393 160.264C83.1364 160.264 83.5309 160.347 83.8225 160.513C84.1175 160.675 84.3429 160.861 84.4987 161.07C84.6578 161.275 84.7804 161.444 84.8666 161.577H84.9859V160.364H86.1194V168.219C86.1194 168.875 85.9703 169.409 85.672 169.82C85.377 170.234 84.9792 170.537 84.4788 170.729C83.9816 170.925 83.4281 171.023 82.8183 171.023ZM82.7785 166.827C83.2491 166.827 83.6469 166.719 83.9717 166.504C84.2965 166.288 84.5434 165.978 84.7124 165.574C84.8815 165.17 84.966 164.686 84.966 164.122C84.966 163.572 84.8831 163.086 84.7174 162.665C84.5517 162.245 84.3064 161.915 83.9816 161.676C83.6568 161.437 83.2558 161.318 82.7785 161.318C82.2813 161.318 81.867 161.444 81.5356 161.696C81.2075 161.948 80.9605 162.286 80.7948 162.71C80.6324 163.134 80.5512 163.605 80.5512 164.122C80.5512 164.652 80.6341 165.121 80.7998 165.529C80.9688 165.933 81.2174 166.252 81.5455 166.484C81.877 166.712 82.288 166.827 82.7785 166.827ZM93.5922 162.074L92.5382 162.372C92.472 162.196 92.3742 162.026 92.2449 161.86C92.119 161.691 91.9466 161.552 91.7279 161.442C91.5091 161.333 91.2291 161.278 90.8877 161.278C90.4203 161.278 90.0309 161.386 89.7193 161.602C89.4111 161.814 89.257 162.084 89.257 162.412C89.257 162.704 89.3631 162.934 89.5752 163.103C89.7873 163.272 90.1187 163.413 90.5695 163.526L91.703 163.804C92.3858 163.97 92.8945 164.223 93.2293 164.565C93.564 164.903 93.7314 165.339 93.7314 165.872C93.7314 166.31 93.6055 166.701 93.3536 167.045C93.105 167.39 92.757 167.662 92.3095 167.861C91.8621 168.06 91.3417 168.159 90.7485 168.159C89.9696 168.159 89.3249 167.99 88.8145 167.652C88.3041 167.314 87.9809 166.82 87.8451 166.17L88.9587 165.892C89.0648 166.303 89.2653 166.611 89.5603 166.817C89.8586 167.022 90.248 167.125 90.7286 167.125C91.2755 167.125 91.7096 167.009 92.0311 166.777C92.356 166.542 92.5184 166.26 92.5184 165.932C92.5184 165.667 92.4256 165.445 92.2399 165.266C92.0543 165.083 91.7693 164.947 91.3848 164.858L90.1121 164.56C89.4128 164.394 88.899 164.137 88.5709 163.789C88.2461 163.438 88.0837 162.999 88.0837 162.472C88.0837 162.041 88.2047 161.66 88.4466 161.328C88.6919 160.997 89.025 160.737 89.4459 160.548C89.8702 160.359 90.3507 160.264 90.8877 160.264C91.6434 160.264 92.2366 160.43 92.6675 160.761C93.1017 161.093 93.4099 161.53 93.5922 162.074Z" fill="#868C98"/>
<path d="M46.7188 212.453V209.297C44.3646 209.057 42.5156 208.25 41.1719 206.875C39.8385 205.5 39.1719 203.693 39.1719 201.453H42.6406C42.651 202.755 43.0104 203.823 43.7188 204.656C44.4271 205.479 45.4271 206.005 46.7188 206.234V198.5L46.4062 198.422C44.0521 197.859 42.3333 197.078 41.25 196.078C40.1771 195.068 39.6406 193.755 39.6406 192.141C39.6406 190.266 40.2812 188.724 41.5625 187.516C42.8438 186.307 44.5625 185.604 46.7188 185.406V182.266H49.375V185.422C51.4688 185.672 53.125 186.432 54.3438 187.703C55.5625 188.974 56.2031 190.635 56.2656 192.688H52.9062C52.8333 191.583 52.4844 190.677 51.8594 189.969C51.2448 189.25 50.4167 188.771 49.375 188.531V195.828L50.0625 195.984C52.3958 196.536 54.1146 197.333 55.2188 198.375C56.3333 199.417 56.8906 200.771 56.8906 202.438C56.8906 204.375 56.2135 205.958 54.8594 207.188C53.5052 208.417 51.6771 209.13 49.375 209.328V212.453H46.7188ZM49.375 206.281C50.6146 206.115 51.599 205.714 52.3281 205.078C53.0573 204.432 53.4219 203.615 53.4219 202.625C53.4219 201.771 53.1094 201.073 52.4844 200.531C51.8698 199.979 50.8333 199.51 49.375 199.125V206.281ZM46.7188 195.172V188.469C45.6354 188.646 44.7604 189.052 44.0938 189.688C43.4271 190.312 43.0938 191.073 43.0938 191.969C43.0938 192.729 43.375 193.365 43.9375 193.875C44.5 194.375 45.4271 194.807 46.7188 195.172ZM67.8281 185.719V209H64.4688V189.125H64.4531L58.7656 192.844V189.531L64.5625 185.719H67.8281ZM79.6875 209.375C77 209.375 74.9167 208.401 73.4375 206.453C71.9688 204.505 71.2344 201.76 71.2344 198.219C71.2344 195.625 71.5521 193.365 72.1875 191.438C72.8229 189.51 73.7865 188.016 75.0781 186.953C76.3802 185.88 78.0208 185.344 80 185.344C81.4167 185.344 82.6615 185.615 83.7344 186.156C84.8177 186.688 85.6875 187.432 86.3438 188.391C87 189.349 87.3958 190.453 87.5312 191.703H84.2031C84.0052 190.651 83.5521 189.812 82.8438 189.188C82.1458 188.562 81.2292 188.25 80.0938 188.25C78.8333 188.25 77.7865 188.609 76.9531 189.328C76.1302 190.047 75.5156 191.036 75.1094 192.297C74.7031 193.557 74.5 195.01 74.5 196.656H74.5312C75.0729 195.76 75.8542 195.057 76.875 194.547C77.9062 194.026 79.0417 193.766 80.2812 193.766C81.7083 193.766 82.9844 194.104 84.1094 194.781C85.2344 195.448 86.1198 196.365 86.7656 197.531C87.4219 198.698 87.75 200.021 87.75 201.5C87.75 203.052 87.4062 204.422 86.7188 205.609C86.0312 206.786 85.0781 207.708 83.8594 208.375C82.651 209.042 81.2604 209.375 79.6875 209.375ZM79.6719 206.453C80.5573 206.453 81.3542 206.234 82.0625 205.797C82.7812 205.349 83.349 204.755 83.7656 204.016C84.1927 203.266 84.4062 202.427 84.4062 201.5C84.4062 200.583 84.2031 199.76 83.7969 199.031C83.3906 198.292 82.8333 197.708 82.125 197.281C81.4271 196.844 80.6354 196.625 79.75 196.625C78.8646 196.625 78.0573 196.844 77.3281 197.281C76.6094 197.719 76.0365 198.307 75.6094 199.047C75.1823 199.786 74.9688 200.615 74.9688 201.531C74.9688 202.438 75.1771 203.266 75.5938 204.016C76.0208 204.755 76.5885 205.349 77.2969 205.797C78.0156 206.234 78.8073 206.453 79.6719 206.453ZM89.0469 213.547L90.3438 205.562H93.7188L91.4062 213.547H89.0469ZM104.672 209.375C102.87 209.375 101.312 208.885 100 207.906C98.6979 206.927 97.6927 205.542 96.9844 203.75C96.276 201.948 95.9219 199.823 95.9219 197.375C95.9219 194.917 96.276 192.786 96.9844 190.984C97.6927 189.182 98.6979 187.792 100 186.812C101.312 185.833 102.87 185.344 104.672 185.344C106.464 185.344 108.01 185.833 109.312 186.812C110.625 187.792 111.635 189.182 112.344 190.984C113.052 192.786 113.406 194.917 113.406 197.375C113.406 199.823 113.052 201.948 112.344 203.75C111.635 205.542 110.625 206.927 109.312 207.906C108.01 208.885 106.464 209.375 104.672 209.375ZM104.672 206.422C106.359 206.422 107.688 205.62 108.656 204.016C109.635 202.401 110.125 200.188 110.125 197.375C110.125 194.552 109.635 192.333 108.656 190.719C107.688 189.104 106.359 188.297 104.672 188.297C102.974 188.297 101.635 189.104 100.656 190.719C99.6875 192.333 99.2031 194.552 99.2031 197.375C99.2031 200.188 99.6875 202.401 100.656 204.016C101.635 205.62 102.974 206.422 104.672 206.422ZM124.047 209.328C122.495 209.328 121.109 209.021 119.891 208.406C118.682 207.781 117.714 206.927 116.984 205.844C116.266 204.75 115.875 203.505 115.812 202.109H119.203C119.307 203.359 119.807 204.391 120.703 205.203C121.609 206.005 122.729 206.406 124.062 206.406C125.469 206.406 126.604 205.932 127.469 204.984C128.344 204.036 128.781 202.823 128.781 201.344C128.781 199.875 128.359 198.667 127.516 197.719C126.672 196.76 125.573 196.281 124.219 196.281C123.031 196.281 122.01 196.526 121.156 197.016C120.302 197.495 119.708 198.193 119.375 199.109H116.109L116.875 185.719H130.797V188.688H119.984L119.469 195.547H119.5C120.865 194.099 122.609 193.375 124.734 193.375C126.151 193.375 127.411 193.719 128.516 194.406C129.63 195.083 130.505 196.021 131.141 197.219C131.786 198.406 132.109 199.76 132.109 201.281C132.109 202.854 131.771 204.245 131.094 205.453C130.427 206.661 129.49 207.609 128.281 208.297C127.073 208.984 125.661 209.328 124.047 209.328ZM142.859 209.375C141.245 209.375 139.818 209.094 138.578 208.531C137.349 207.969 136.385 207.193 135.688 206.203C134.99 205.214 134.641 204.078 134.641 202.797C134.641 201.755 134.865 200.812 135.312 199.969C135.76 199.115 136.37 198.417 137.141 197.875C137.922 197.323 138.807 196.984 139.797 196.859C138.516 196.62 137.474 196.031 136.672 195.094C135.87 194.156 135.469 192.995 135.469 191.609C135.469 190.401 135.786 189.328 136.422 188.391C137.057 187.443 137.932 186.698 139.047 186.156C140.161 185.615 141.432 185.344 142.859 185.344C144.286 185.344 145.552 185.615 146.656 186.156C147.771 186.688 148.646 187.427 149.281 188.375C149.917 189.323 150.234 190.401 150.234 191.609C150.234 192.984 149.828 194.146 149.016 195.094C148.214 196.031 147.182 196.62 145.922 196.859C146.911 196.995 147.792 197.339 148.562 197.891C149.344 198.432 149.958 199.13 150.406 199.984C150.854 200.828 151.078 201.766 151.078 202.797C151.078 204.078 150.729 205.214 150.031 206.203C149.333 207.193 148.365 207.969 147.125 208.531C145.885 209.094 144.464 209.375 142.859 209.375ZM142.859 206.547C144.297 206.547 145.448 206.188 146.312 205.469C147.177 204.75 147.609 203.792 147.609 202.594C147.609 201.375 147.161 200.375 146.266 199.594C145.38 198.802 144.245 198.406 142.859 198.406C141.464 198.406 140.318 198.802 139.422 199.594C138.526 200.375 138.078 201.375 138.078 202.594C138.078 203.781 138.51 204.74 139.375 205.469C140.25 206.188 141.411 206.547 142.859 206.547ZM142.859 195.609C144.057 195.609 145.026 195.271 145.766 194.594C146.516 193.906 146.891 193 146.891 191.875C146.891 190.771 146.521 189.88 145.781 189.203C145.042 188.526 144.068 188.188 142.859 188.188C141.641 188.188 140.661 188.526 139.922 189.203C139.182 189.88 138.812 190.771 138.812 191.875C138.812 192.99 139.182 193.891 139.922 194.578C140.672 195.266 141.651 195.609 142.859 195.609Z" fill="#E2E4E9"/>
<path d="M155.328 209.266C154.724 209.266 154.208 209.057 153.781 208.641C153.365 208.214 153.156 207.693 153.156 207.078C153.156 206.474 153.365 205.958 153.781 205.531C154.208 205.104 154.724 204.891 155.328 204.891C155.943 204.891 156.458 205.104 156.875 205.531C157.302 205.958 157.516 206.474 157.516 207.078C157.516 207.693 157.302 208.214 156.875 208.641C156.458 209.057 155.943 209.266 155.328 209.266ZM167.672 209.375C166.266 209.375 165.016 209.109 163.922 208.578C162.839 208.036 161.964 207.286 161.297 206.328C160.641 205.37 160.24 204.266 160.094 203.016H163.422C163.62 204.068 164.078 204.906 164.797 205.531C165.516 206.156 166.438 206.469 167.562 206.469C168.833 206.469 169.88 206.109 170.703 205.391C171.536 204.672 172.156 203.682 172.562 202.422C172.969 201.161 173.172 199.708 173.172 198.062H173.141C172.599 198.958 171.823 199.651 170.812 200.141C169.812 200.62 168.693 200.859 167.453 200.859C166.016 200.859 164.734 200.526 163.609 199.859C162.484 199.193 161.599 198.281 160.953 197.125C160.307 195.969 159.984 194.651 159.984 193.172C159.984 191.62 160.328 190.255 161.016 189.078C161.703 187.901 162.651 186.984 163.859 186.328C165.068 185.672 166.464 185.344 168.047 185.344C170.734 185.344 172.812 186.318 174.281 188.266C175.76 190.214 176.5 192.958 176.5 196.5C176.5 199.094 176.177 201.354 175.531 203.281C174.885 205.208 173.906 206.708 172.594 207.781C171.292 208.844 169.651 209.375 167.672 209.375ZM167.969 197.984C168.854 197.984 169.656 197.771 170.375 197.344C171.104 196.917 171.682 196.339 172.109 195.609C172.536 194.87 172.75 194.047 172.75 193.141C172.75 192.224 172.542 191.401 172.125 190.672C171.708 189.932 171.141 189.349 170.422 188.922C169.714 188.484 168.922 188.266 168.047 188.266C167.172 188.266 166.375 188.484 165.656 188.922C164.938 189.349 164.365 189.932 163.938 190.672C163.521 191.411 163.312 192.245 163.312 193.172C163.312 194.089 163.516 194.911 163.922 195.641C164.339 196.359 164.896 196.932 165.594 197.359C166.302 197.776 167.094 197.984 167.969 197.984ZM178.625 203.578V200.797L189.469 185.719H193.719V200.672H197.109V203.578H193.719V209H190.422V203.578H178.625ZM190.422 200.672V189.359H190.391L182.297 200.641V200.672H190.422Z" fill="#868C98"/>
<path d="M341.718 192.194L329.772 180.249C326.802 184.428 323.152 188.079 318.973 191.049L330.918 202.994L341.718 192.194Z" fill="url(#paint0_linear_613_1187)"/>
<path d="M365.666 226.942C361.589 231.019 354.979 231.019 350.902 226.942L330.535 206.575C330.275 206.315 330.068 206.006 329.927 205.666C329.786 205.326 329.714 204.961 329.714 204.593C329.714 204.225 329.786 203.86 329.927 203.52C330.068 203.18 330.275 202.871 330.535 202.611L341.335 191.811C341.595 191.551 341.904 191.344 342.244 191.203C342.584 191.063 342.949 190.99 343.317 190.99C343.685 190.99 344.049 191.063 344.39 191.203C344.73 191.344 345.039 191.551 345.299 191.811L365.666 212.178C369.743 216.255 369.743 222.866 365.666 226.942Z" fill="url(#paint1_linear_613_1187)"/>
<path d="M362.794 226.942L342.427 206.575C342.167 206.315 341.96 206.006 341.819 205.666C341.678 205.326 341.606 204.961 341.606 204.593C341.606 204.225 341.678 203.86 341.819 203.52C341.96 203.18 342.167 202.871 342.427 202.611L349.262 195.776L345.297 191.811C345.037 191.551 344.728 191.344 344.388 191.203C344.048 191.063 343.683 190.99 343.315 190.99C342.947 190.99 342.582 191.063 342.242 191.203C341.902 191.344 341.593 191.551 341.333 191.811L330.533 202.611C330.273 202.871 330.066 203.18 329.925 203.52C329.784 203.86 329.712 204.225 329.712 204.593C329.712 204.961 329.784 205.326 329.925 205.666C330.066 206.006 330.273 206.315 330.533 206.575L350.9 226.942C354.529 230.571 360.159 230.961 364.229 228.131C363.716 227.778 363.236 227.38 362.794 226.942Z" fill="black" fill-opacity="0.1"/>
<path d="M292.711 199.979C318.11 199.979 338.7 179.388 338.7 153.989C338.7 128.59 318.11 108 292.711 108C267.312 108 246.722 128.59 246.722 153.989C246.722 179.388 267.312 199.979 292.711 199.979Z" fill="#885FA8"/>
<path d="M260.51 153.989C260.51 130.933 277.477 111.843 299.605 108.516C297.323 108.173 295.019 108 292.711 108C267.312 108 246.722 128.59 246.722 153.989C246.722 179.389 267.312 199.979 292.711 199.979C295.054 199.979 297.356 199.801 299.605 199.463C277.477 196.135 260.51 177.045 260.51 153.989Z" fill="#885FA8"/>
<path d="M292.711 187.696C311.328 187.696 326.419 172.605 326.419 153.989C326.419 135.373 311.328 120.281 292.711 120.281C274.095 120.281 259.004 135.373 259.004 153.989C259.004 172.605 274.095 187.696 292.711 187.696Z" fill="url(#paint2_linear_613_1187)"/>
<path d="M272.636 153.989C272.636 137.708 284.179 124.123 299.528 120.972C297.286 120.512 295.002 120.281 292.713 120.282C274.097 120.282 259.006 135.373 259.006 153.99C259.006 172.606 274.097 187.697 292.713 187.697C295.048 187.697 297.327 187.459 299.528 187.007C284.179 183.854 272.636 170.27 272.636 153.989Z" fill="#2D3035"/>
<path d="M338.762 125.96L311.658 153.065L297.459 138.866C296.699 138.106 295.667 137.678 294.591 137.678C293.515 137.678 292.483 138.106 291.722 138.866L276.432 154.157C279.342 154.786 281.545 157.316 281.687 160.377L294.591 147.472L308.79 161.67C309.551 162.431 310.583 162.858 311.659 162.858C312.734 162.858 313.766 162.431 314.527 161.67L344.5 131.697L338.762 125.96Z" fill="#885FA8" fill-opacity="0.533333"/>
<path d="M351.408 117.473L336.12 121.297C335.139 121.542 334.801 122.763 335.515 123.478L346.98 134.943C347.695 135.657 348.916 135.319 349.162 134.339L352.986 119.05C353.224 118.098 352.361 117.235 351.408 117.473Z" fill="url(#paint3_linear_613_1187)"/>
<path d="M275.019 167.909C279.008 167.909 282.242 164.675 282.242 160.686C282.242 156.697 279.008 153.463 275.019 153.463C271.03 153.463 267.796 156.697 267.796 160.686C267.796 164.675 271.03 167.909 275.019 167.909Z" fill="url(#paint4_linear_613_1187)"/>
<path d="M79.4379 73.4829C78.4432 72.6823 77.693 71.6189 77.2723 70.4134C76.3555 67.7911 74.5111 65.4817 71.8922 64.0252C69.2733 62.5687 66.3386 62.2199 63.6269 62.8245C62.3809 63.1029 61.0818 63.0265 59.8771 62.6039C57.2551 61.6857 54.2995 61.6878 51.5279 62.8272C48.7563 63.9666 46.6537 66.0438 45.4357 68.5407C44.8765 69.6885 44.0068 70.6565 42.9252 71.3349C40.5726 72.8123 38.7315 75.1243 37.8941 78.0016C37.0568 80.879 37.37 83.8177 38.5626 86.3268C39.1112 87.4796 39.3258 88.7631 39.182 90.0318C38.8702 92.7923 39.53 95.6732 41.2577 98.1217C42.9851 100.57 45.478 102.158 48.1834 102.79C49.4268 103.08 50.5641 103.712 51.4662 104.616C53.4303 106.58 56.0939 107.861 59.0854 108.037C62.0768 108.213 64.8724 107.254 67.0531 105.533C68.055 104.741 69.2586 104.246 70.5275 104.104C73.2881 103.794 75.9501 102.51 77.9528 100.281C79.9555 98.0516 80.9487 95.2678 80.9627 92.4897C80.9685 91.213 81.3321 89.9635 82.0122 88.883C83.4908 86.5311 84.1463 83.6492 83.6524 80.6935C83.1583 77.7379 81.6011 75.226 79.4379 73.4829Z" fill="url(#paint5_linear_613_1187)"/>
<path d="M43.5765 92.6976C48.3622 101.903 59.7045 105.486 68.9103 100.701C78.116 95.915 81.6991 84.5726 76.9134 75.3669C72.1276 66.1612 60.7853 62.5781 51.5796 67.3638C42.3739 72.1495 38.7908 83.4919 43.5765 92.6976Z" fill="url(#paint6_linear_613_1187)"/>
<path d="M41.2574 98.1217C42.9849 100.57 45.478 102.158 48.1832 102.79C49.4266 103.08 50.5639 103.712 51.466 104.616C53.4298 106.581 56.0937 107.861 59.0852 108.037C62.0766 108.213 64.8722 107.254 67.0529 105.533C68.0548 104.741 69.2584 104.246 70.5273 104.104C73.2879 103.794 75.9499 102.51 77.9526 100.281C79.9553 98.0516 80.9485 95.2678 80.9625 92.4897C80.9683 91.213 81.3319 89.9635 82.012 88.8829C83.4906 86.5311 84.1461 83.6492 83.6522 80.6935C83.243 78.224 82.0526 75.9508 80.2557 74.2081L39.1105 91.1226C39.0589 93.6253 39.8114 96.0785 41.2574 98.1217Z" fill="url(#paint7_linear_613_1187)"/>
<path d="M77.2723 70.4135C76.3554 67.7911 74.5111 65.4818 71.8922 64.0253C69.2733 62.5688 66.3385 62.2199 63.6269 62.8245C62.3809 63.1029 61.0818 63.0265 59.877 62.6039C57.255 61.6857 54.2995 61.6878 51.5278 62.8272C49.4913 63.6612 47.7314 65.053 46.4505 66.8426L63.1859 107.552C64.5898 107.126 65.9015 106.442 67.0532 105.533C68.055 104.741 69.2587 104.247 70.5275 104.105C73.2882 103.794 75.9501 102.51 77.9529 100.281C79.9556 98.0518 80.9488 95.268 80.9627 92.4899C80.9686 91.2132 81.3322 89.9637 82.0123 88.8832C83.4909 86.5313 84.1463 83.6494 83.6524 80.6937C83.1583 77.7382 81.6011 75.2262 79.4379 73.4831C78.4433 72.6824 77.693 71.619 77.2723 70.4135Z" fill="url(#paint8_linear_613_1187)"/>
<path d="M66.3976 98.9989C74.6633 95.6009 78.6094 86.1456 75.2114 77.8799C71.8134 69.6141 62.3581 65.6681 54.0924 69.066C45.8267 72.464 41.8806 81.9193 45.2786 90.185C48.6766 98.4508 58.1319 102.397 66.3976 98.9989Z" fill="url(#paint9_linear_613_1187)"/>
<path d="M45.2792 90.1849C48.6771 98.4507 58.1325 102.397 66.3982 98.9988C74.6639 95.6008 78.61 86.1455 75.212 77.8798C74.4991 76.141 73.4881 74.54 72.2246 73.1488L44.0754 84.7208C44.1557 86.5983 44.563 88.4475 45.2792 90.1849Z" fill="url(#paint10_linear_613_1187)"/>
<path d="M54.0128 98.9657C62.2604 102.408 71.7365 98.5122 75.1785 90.2647C78.6205 82.0171 74.7249 72.5408 66.4774 69.099C64.7438 68.3736 62.8969 67.9564 61.0198 67.8662L49.2978 95.9532C50.6823 97.224 52.2779 98.2435 54.0128 98.9657Z" fill="url(#paint11_linear_613_1187)"/>
<path d="M67.0376 76.8264L58.2715 90.1956L52.2674 86.1022" stroke="white" stroke-width="4" stroke-linecap="round" stroke-linejoin="round"/>
</g>
<rect x="18.25" y="40.25" width="350.5" height="194.5" rx="15.75" stroke="#1F2122" stroke-width="0.5"/>
</g>
<path d="M387.111 90H-0.888672V275H387.111V90Z" fill="url(#paint12_linear_613_1187)"/>
</g>
<defs>
<filter id="filter0_d_613_1187" x="16" y="39" width="355" height="199" filterUnits="userSpaceOnUse" color-interpolation-filters="sRGB">
<feFlood flood-opacity="0" result="BackgroundImageFix"/>
<feColorMatrix in="SourceAlpha" type="matrix" values="0 0 0 0 0 0 0 0 0 0 0 0 0 0 0 0 0 0 127 0" result="hardAlpha"/>
<feOffset dy="1"/>
<feGaussianBlur stdDeviation="1"/>
<feComposite in2="hardAlpha" operator="out"/>
<feColorMatrix type="matrix" values="0 0 0 0 0.227451 0 0 0 0 0.227451 0 0 0 0 0.227451 0 0 0 0.24 0"/>
<feBlend mode="normal" in2="BackgroundImageFix" result="effect1_dropShadow_613_1187"/>
<feBlend mode="normal" in="SourceGraphic" in2="effect1_dropShadow_613_1187" result="shape"/>
</filter>
<linearGradient id="paint0_linear_613_1187" x1="330.345" y1="180.249" x2="330.345" y2="202.994" gradientUnits="userSpaceOnUse">
<stop stop-color="#885FA8"/>
<stop offset="1" stop-color="#885FA8" stop-opacity="0.533333"/>
</linearGradient>
<linearGradient id="paint1_linear_613_1187" x1="349.219" y1="190.99" x2="349.219" y2="230" gradientUnits="userSpaceOnUse">
<stop stop-color="#885FA8"/>
<stop offset="1" stop-color="#885FA8" stop-opacity="0.533333"/>
</linearGradient>
<linearGradient id="paint2_linear_613_1187" x1="292.711" y1="120.281" x2="292.711" y2="187.696" gradientUnits="userSpaceOnUse">
<stop stop-color="#202125"/>
<stop offset="1" stop-color="#0B0D12"/>
</linearGradient>
<linearGradient id="paint3_linear_613_1187" x1="344.08" y1="117.433" x2="344.08" y2="135.325" gradientUnits="userSpaceOnUse">
<stop stop-color="#885FA8"/>
<stop offset="1" stop-color="#885FA8" stop-opacity="0.533333"/>
</linearGradient>
<linearGradient id="paint4_linear_613_1187" x1="275.019" y1="153.463" x2="275.019" y2="167.909" gradientUnits="userSpaceOnUse">
<stop stop-color="#885FA8"/>
<stop offset="1" stop-color="#885FA8" stop-opacity="0.533333"/>
</linearGradient>
<linearGradient id="paint5_linear_613_1187" x1="42.8533" y1="76.9027" x2="75.6711" y2="90.599" gradientUnits="userSpaceOnUse">
<stop stop-color="#885FA8"/>
<stop offset="1" stop-color="#885FA8"/>
</linearGradient>
<linearGradient id="paint6_linear_613_1187" x1="54.0619" y1="103.605" x2="67.7284" y2="60.3435" gradientUnits="userSpaceOnUse">
<stop stop-color="#885FA8"/>
<stop offset="1" stop-color="#885FA8"/>
</linearGradient>
<linearGradient id="paint7_linear_613_1187" x1="63.8585" y1="92.8225" x2="69.0747" y2="105.511" gradientUnits="userSpaceOnUse">
<stop stop-color="#885FA8" stop-opacity="0"/>
<stop offset="1" stop-color="#885FA8"/>
</linearGradient>
<linearGradient id="paint8_linear_613_1187" x1="70.2446" y1="85.6327" x2="83.2146" y2="87.0857" gradientUnits="userSpaceOnUse">
<stop stop-color="#885FA8" stop-opacity="0"/>
<stop offset="1" stop-color="#885FA8"/>
</linearGradient>
<linearGradient id="paint9_linear_613_1187" x1="49.257" y1="79.4467" x2="68.0085" y2="87.2725" gradientUnits="userSpaceOnUse">
<stop stop-color="#885FA8"/>
<stop offset="1" stop-color="#885FA8"/>
</linearGradient>
<linearGradient id="paint10_linear_613_1187" x1="60.9442" y1="86.2848" x2="65.0209" y2="99.434" gradientUnits="userSpaceOnUse">
<stop stop-color="#885FA8" stop-opacity="0"/>
<stop offset="1" stop-color="#885FA8"/>
</linearGradient>
<linearGradient id="paint11_linear_613_1187" x1="63.7975" y1="84.5889" x2="75.0082" y2="86.3438" gradientUnits="userSpaceOnUse">
<stop stop-color="#885FA8" stop-opacity="0"/>
<stop offset="1" stop-color="#885FA8"/>
</linearGradient>
<linearGradient id="paint12_linear_613_1187" x1="193.111" y1="90" x2="193.111" y2="275" gradientUnits="userSpaceOnUse">
<stop stop-color="#0E0E10" stop-opacity="0"/>
<stop offset="1"/>
</linearGradient>
<clipPath id="clip0_613_1187">
<rect width="386.556" height="255" fill="white" transform="translate(0.111328)"/>
</clipPath>
<clipPath id="clip1_613_1187">
<rect x="18" y="40" width="351" height="195" rx="16" fill="white"/>
</clipPath>
</defs>
</svg>
