<svg width="387" height="256" viewBox="0 0 387 256" fill="none" xmlns="http://www.w3.org/2000/svg">
<g clip-path="url(#clip0_613_1124)">
<g clip-path="url(#clip1_613_1124)">
<rect x="30" y="3" width="370" height="315" rx="20" fill="#100810"/>
<path d="M53.2615 57V46.2H57.5215C58.3015 46.2 58.9665 46.33 59.5165 46.59C60.0665 46.84 60.4915 47.195 60.7915 47.655C61.0915 48.105 61.2415 48.64 61.2415 49.26C61.2415 49.88 61.0915 50.42 60.7915 50.88C60.4915 51.34 60.0665 51.7 59.5165 51.96C58.9665 52.22 58.3015 52.35 57.5215 52.35H54.4615V51.06H57.4765C58.1965 51.06 58.7415 50.905 59.1115 50.595C59.4915 50.275 59.6815 49.835 59.6815 49.275C59.6815 48.715 59.4965 48.28 59.1265 47.97C58.7565 47.66 58.2065 47.505 57.4765 47.505H54.8515V57H53.2615ZM59.5015 57L54.2365 51.555H56.1715L61.7815 57H59.5015ZM66.0097 57.15C65.2397 57.15 64.5597 56.98 63.9697 56.64C63.3897 56.3 62.9347 55.83 62.6047 55.23C62.2747 54.63 62.1097 53.94 62.1097 53.16C62.1097 52.37 62.2697 51.68 62.5897 51.09C62.9197 50.49 63.3797 50.025 63.9697 49.695C64.5597 49.365 65.2347 49.2 65.9947 49.2C66.7347 49.2 67.3747 49.36 67.9147 49.68C68.4647 49.99 68.8847 50.425 69.1747 50.985C69.4747 51.545 69.6247 52.21 69.6247 52.98C69.6247 53.1 69.6197 53.215 69.6097 53.325C69.6097 53.425 69.5997 53.53 69.5797 53.64H63.1597V52.47H68.4847L68.0947 52.935C68.0947 52.115 67.9097 51.49 67.5397 51.06C67.1697 50.63 66.6547 50.415 65.9947 50.415C65.2847 50.415 64.7197 50.66 64.2997 51.15C63.8897 51.63 63.6847 52.3 63.6847 53.16C63.6847 54.03 63.8897 54.71 64.2997 55.2C64.7197 55.69 65.2997 55.935 66.0397 55.935C66.4897 55.935 66.8797 55.845 67.2097 55.665C67.5397 55.475 67.7847 55.2 67.9447 54.84H69.4147C69.1647 55.56 68.7397 56.125 68.1397 56.535C67.5497 56.945 66.8397 57.15 66.0097 57.15ZM75.8726 57C75.8226 56.81 75.7876 56.6 75.7676 56.37C75.7576 56.14 75.7526 55.86 75.7526 55.53H75.6776V51.885C75.6776 51.395 75.5526 51.03 75.3026 50.79C75.0626 50.54 74.6776 50.415 74.1476 50.415C73.6376 50.415 73.2276 50.515 72.9176 50.715C72.6176 50.915 72.4426 51.2 72.3926 51.57H70.9076C70.9776 50.85 71.3026 50.275 71.8826 49.845C72.4626 49.415 73.2376 49.2 74.2076 49.2C75.2076 49.2 75.9576 49.435 76.4576 49.905C76.9576 50.365 77.2076 51.045 77.2076 51.945V55.53C77.2076 55.76 77.2226 55.995 77.2526 56.235C77.2826 56.475 77.3276 56.73 77.3876 57H75.8726ZM73.2326 57.15C72.4526 57.15 71.8326 56.96 71.3726 56.58C70.9126 56.19 70.6826 55.665 70.6826 55.005C70.6826 54.325 70.9226 53.79 71.4026 53.4C71.8926 53 72.5926 52.73 73.5026 52.59L76.0226 52.185V53.28L73.7426 53.64C73.2326 53.72 72.8476 53.855 72.5876 54.045C72.3376 54.235 72.2126 54.51 72.2126 54.87C72.2126 55.22 72.3276 55.485 72.5576 55.665C72.7976 55.835 73.1426 55.92 73.5926 55.92C74.1926 55.92 74.6876 55.775 75.0776 55.485C75.4776 55.195 75.6776 54.83 75.6776 54.39L75.8726 55.5C75.6926 56.03 75.3726 56.44 74.9126 56.73C74.4526 57.01 73.8926 57.15 73.2326 57.15ZM82.4425 57.15C81.7125 57.15 81.0625 56.98 80.4925 56.64C79.9225 56.29 79.4725 55.815 79.1425 55.215C78.8225 54.615 78.6625 53.93 78.6625 53.16C78.6625 52.39 78.8225 51.71 79.1425 51.12C79.4725 50.52 79.9225 50.05 80.4925 49.71C81.0625 49.37 81.7075 49.2 82.4275 49.2C83.0375 49.2 83.5825 49.315 84.0625 49.545C84.5425 49.775 84.9375 50.095 85.2475 50.505C85.5575 50.915 85.7575 51.4 85.8475 51.96H84.3775C84.2775 51.51 84.0575 51.15 83.7175 50.88C83.3875 50.61 82.9675 50.475 82.4575 50.475C82.0175 50.475 81.6325 50.585 81.3025 50.805C80.9725 51.025 80.7175 51.335 80.5375 51.735C80.3575 52.135 80.2675 52.61 80.2675 53.16C80.2675 53.7 80.3575 54.175 80.5375 54.585C80.7175 54.995 80.9725 55.315 81.3025 55.545C81.6325 55.765 82.0225 55.875 82.4725 55.875C82.9625 55.875 83.3775 55.745 83.7175 55.485C84.0675 55.215 84.2925 54.855 84.3925 54.405H85.8625C85.7625 54.955 85.5525 55.435 85.2325 55.845C84.9225 56.255 84.5275 56.575 84.0475 56.805C83.5675 57.035 83.0325 57.15 82.4425 57.15ZM87.407 57V46.2H88.967V57H87.407ZM92.837 57V52.08C92.837 51.55 92.702 51.155 92.432 50.895C92.172 50.635 91.782 50.505 91.262 50.505C90.812 50.505 90.412 50.605 90.062 50.805C89.722 51.005 89.452 51.28 89.252 51.63C89.062 51.98 88.967 52.395 88.967 52.875L88.772 51.045C89.022 50.475 89.407 50.025 89.927 49.695C90.447 49.365 91.052 49.2 91.742 49.2C92.562 49.2 93.207 49.43 93.677 49.89C94.147 50.35 94.382 50.96 94.382 51.72V57H92.837Z" fill="#94969E"/>
<g clip-path="url(#clip2_613_1124)">
<path d="M106.785 57.8489C110.291 57.8489 113.134 55.0064 113.134 51.5C113.134 47.9935 110.291 45.151 106.785 45.151C103.279 45.151 100.436 47.9935 100.436 51.5C100.436 55.0064 103.279 57.8489 106.785 57.8489Z" stroke="#666666" stroke-width="1.5"/>
<path d="M106.786 54.6749V50.8654" stroke="#666666" stroke-width="1.5" stroke-linecap="round"/>
<path d="M106.785 48.3259C107.135 48.3259 107.419 48.61 107.419 48.9605C107.419 49.3111 107.135 49.5952 106.785 49.5952C106.434 49.5952 106.15 49.3111 106.15 48.9605C106.15 48.61 106.434 48.3259 106.785 48.3259Z" fill="#666666"/>
</g>
<line x1="52.1665" y1="77.5" x2="369.167" y2="77.5" stroke="#28282C"/>
<path d="M52.6145 111.5L56.4085 101.42H57.6965L54.0705 111.5H52.6145ZM60.4125 111.5L56.7865 101.42H58.1445L61.9525 111.5H60.4125ZM54.5325 107.482H59.9365V108.714H54.5325V107.482ZM66.0003 111.64C65.3189 111.64 64.7123 111.481 64.1803 111.164C63.6483 110.837 63.2283 110.394 62.9203 109.834C62.6216 109.274 62.4723 108.635 62.4723 107.916C62.4723 107.197 62.6216 106.563 62.9203 106.012C63.2283 105.452 63.6483 105.013 64.1803 104.696C64.7123 104.379 65.3143 104.22 65.9863 104.22C66.5556 104.22 67.0643 104.327 67.5123 104.542C67.9603 104.757 68.3289 105.055 68.6183 105.438C68.9076 105.821 69.0943 106.273 69.1783 106.796H67.8063C67.7129 106.376 67.5076 106.04 67.1903 105.788C66.8823 105.536 66.4903 105.41 66.0143 105.41C65.6036 105.41 65.2443 105.513 64.9363 105.718C64.6283 105.923 64.3903 106.213 64.2223 106.586C64.0543 106.959 63.9703 107.403 63.9703 107.916C63.9703 108.42 64.0543 108.863 64.2223 109.246C64.3903 109.629 64.6283 109.927 64.9363 110.142C65.2443 110.347 65.6083 110.45 66.0283 110.45C66.4856 110.45 66.8729 110.329 67.1903 110.086C67.5169 109.834 67.7269 109.498 67.8203 109.078H69.1923C69.0989 109.591 68.9029 110.039 68.6043 110.422C68.3149 110.805 67.9463 111.103 67.4983 111.318C67.0503 111.533 66.5509 111.64 66.0003 111.64ZM73.5745 111.64C72.8931 111.64 72.2865 111.481 71.7545 111.164C71.2225 110.837 70.8025 110.394 70.4945 109.834C70.1958 109.274 70.0465 108.635 70.0465 107.916C70.0465 107.197 70.1958 106.563 70.4945 106.012C70.8025 105.452 71.2225 105.013 71.7545 104.696C72.2865 104.379 72.8885 104.22 73.5605 104.22C74.1298 104.22 74.6385 104.327 75.0865 104.542C75.5345 104.757 75.9031 105.055 76.1925 105.438C76.4818 105.821 76.6685 106.273 76.7525 106.796H75.3805C75.2871 106.376 75.0818 106.04 74.7645 105.788C74.4565 105.536 74.0645 105.41 73.5885 105.41C73.1778 105.41 72.8185 105.513 72.5105 105.718C72.2025 105.923 71.9645 106.213 71.7965 106.586C71.6285 106.959 71.5445 107.403 71.5445 107.916C71.5445 108.42 71.6285 108.863 71.7965 109.246C71.9645 109.629 72.2025 109.927 72.5105 110.142C72.8185 110.347 73.1825 110.45 73.6025 110.45C74.0598 110.45 74.4471 110.329 74.7645 110.086C75.0911 109.834 75.3011 109.498 75.3945 109.078H76.7665C76.6731 109.591 76.4771 110.039 76.1785 110.422C75.8891 110.805 75.5205 111.103 75.0725 111.318C74.6245 111.533 74.1251 111.64 73.5745 111.64ZM81.2887 111.64C80.5607 111.64 79.9214 111.481 79.3707 111.164C78.82 110.837 78.3907 110.394 78.0827 109.834C77.7747 109.265 77.6207 108.621 77.6207 107.902C77.6207 107.174 77.7747 106.535 78.0827 105.984C78.4 105.433 78.8294 105.004 79.3707 104.696C79.9214 104.379 80.5607 104.22 81.2887 104.22C82.026 104.22 82.67 104.379 83.2207 104.696C83.7714 105.004 84.196 105.433 84.4947 105.984C84.8027 106.535 84.9567 107.174 84.9567 107.902C84.9567 108.621 84.8027 109.265 84.4947 109.834C84.196 110.394 83.7714 110.837 83.2207 111.164C82.67 111.481 82.026 111.64 81.2887 111.64ZM81.2887 110.45C81.7274 110.45 82.1054 110.343 82.4227 110.128C82.7494 109.913 83.006 109.615 83.1927 109.232C83.3794 108.849 83.4727 108.401 83.4727 107.888C83.4727 107.123 83.2674 106.521 82.8567 106.082C82.4554 105.634 81.9327 105.41 81.2887 105.41C80.654 105.41 80.1314 105.634 79.7207 106.082C79.3194 106.53 79.1187 107.132 79.1187 107.888C79.1187 108.401 79.2074 108.849 79.3847 109.232C79.5714 109.615 79.828 109.913 80.1547 110.128C80.4907 110.343 80.8687 110.45 81.2887 110.45ZM88.7762 111.64C88.3002 111.64 87.8802 111.542 87.5162 111.346C87.1522 111.141 86.8675 110.861 86.6622 110.506C86.4662 110.151 86.3682 109.745 86.3682 109.288V104.36H87.8242V108.952C87.8242 109.447 87.9455 109.815 88.1882 110.058C88.4308 110.301 88.7762 110.422 89.2242 110.422C89.6255 110.422 89.9802 110.329 90.2882 110.142C90.6055 109.955 90.8528 109.699 91.0302 109.372C91.2168 109.036 91.3102 108.649 91.3102 108.21L91.4922 109.918C91.2588 110.441 90.8995 110.861 90.4142 111.178C89.9382 111.486 89.3922 111.64 88.7762 111.64ZM91.3662 111.5V109.82H91.3102V104.36H92.7522V111.5H91.3662ZM94.792 111.5V104.36H96.178V106.04H96.248V111.5H94.792ZM99.86 111.5V106.908C99.86 106.413 99.734 106.045 99.482 105.802C99.2394 105.559 98.8754 105.438 98.39 105.438C97.97 105.438 97.5967 105.531 97.27 105.718C96.9527 105.905 96.7007 106.161 96.514 106.488C96.3367 106.815 96.248 107.202 96.248 107.65L96.066 105.942C96.2994 105.41 96.6587 104.99 97.144 104.682C97.6294 104.374 98.194 104.22 98.838 104.22C99.6034 104.22 100.205 104.435 100.644 104.864C101.083 105.293 101.302 105.863 101.302 106.572V111.5H99.86ZM106.088 111.64C105.257 111.64 104.646 111.449 104.254 111.066C103.871 110.674 103.68 110.1 103.68 109.344V102.722L105.122 102.176V109.358C105.122 109.731 105.22 110.007 105.416 110.184C105.612 110.361 105.929 110.45 106.368 110.45C106.536 110.45 106.685 110.436 106.816 110.408C106.946 110.38 107.058 110.347 107.152 110.31V111.486C107.049 111.533 106.904 111.57 106.718 111.598C106.531 111.626 106.321 111.64 106.088 111.64ZM102.252 105.522V104.36H107.152V105.522H102.252ZM111.067 111.64C110.134 111.64 109.392 111.435 108.841 111.024C108.291 110.613 107.978 110.035 107.903 109.288H109.247C109.313 109.699 109.499 110.016 109.807 110.24C110.125 110.455 110.554 110.562 111.095 110.562C111.571 110.562 111.935 110.478 112.187 110.31C112.439 110.142 112.565 109.904 112.565 109.596C112.565 109.372 112.491 109.185 112.341 109.036C112.201 108.877 111.921 108.747 111.501 108.644L110.353 108.378C109.635 108.201 109.098 107.939 108.743 107.594C108.398 107.239 108.225 106.805 108.225 106.292C108.225 105.648 108.463 105.144 108.939 104.78C109.425 104.407 110.087 104.22 110.927 104.22C111.758 104.22 112.425 104.407 112.929 104.78C113.443 105.153 113.732 105.676 113.797 106.348H112.453C112.397 106.012 112.234 105.755 111.963 105.578C111.702 105.391 111.343 105.298 110.885 105.298C110.456 105.298 110.125 105.377 109.891 105.536C109.667 105.685 109.555 105.895 109.555 106.166C109.555 106.39 109.639 106.577 109.807 106.726C109.985 106.875 110.274 107.001 110.675 107.104L111.851 107.398C112.533 107.566 113.046 107.841 113.391 108.224C113.737 108.597 113.909 109.05 113.909 109.582C113.909 110.226 113.657 110.73 113.153 111.094C112.659 111.458 111.963 111.64 111.067 111.64ZM118.021 111.5V104.36H119.407V106.138H119.477V111.5H118.021ZM119.477 107.776L119.295 106.082C119.463 105.475 119.752 105.013 120.163 104.696C120.573 104.379 121.063 104.22 121.633 104.22C121.847 104.22 121.997 104.239 122.081 104.276V105.648C122.034 105.629 121.969 105.62 121.885 105.62C121.801 105.611 121.698 105.606 121.577 105.606C120.877 105.606 120.349 105.788 119.995 106.152C119.649 106.516 119.477 107.057 119.477 107.776ZM126.255 111.64C125.536 111.64 124.901 111.481 124.351 111.164C123.809 110.847 123.385 110.408 123.077 109.848C122.769 109.288 122.615 108.644 122.615 107.916C122.615 107.179 122.764 106.535 123.063 105.984C123.371 105.424 123.8 104.99 124.351 104.682C124.901 104.374 125.531 104.22 126.241 104.22C126.931 104.22 127.529 104.369 128.033 104.668C128.546 104.957 128.938 105.363 129.209 105.886C129.489 106.409 129.629 107.029 129.629 107.748C129.629 107.86 129.624 107.967 129.615 108.07C129.615 108.163 129.605 108.261 129.587 108.364H123.595V107.272H128.565L128.201 107.706C128.201 106.941 128.028 106.357 127.683 105.956C127.337 105.555 126.857 105.354 126.241 105.354C125.578 105.354 125.051 105.583 124.659 106.04C124.276 106.488 124.085 107.113 124.085 107.916C124.085 108.728 124.276 109.363 124.659 109.82C125.051 110.277 125.592 110.506 126.283 110.506C126.703 110.506 127.067 110.422 127.375 110.254C127.683 110.077 127.911 109.82 128.061 109.484H129.433C129.199 110.156 128.803 110.683 128.243 111.066C127.692 111.449 127.029 111.64 126.255 111.64ZM135.46 111.5C135.413 111.323 135.381 111.127 135.362 110.912C135.353 110.697 135.348 110.436 135.348 110.128H135.278V106.726C135.278 106.269 135.161 105.928 134.928 105.704C134.704 105.471 134.345 105.354 133.85 105.354C133.374 105.354 132.991 105.447 132.702 105.634C132.422 105.821 132.259 106.087 132.212 106.432H130.826C130.891 105.76 131.195 105.223 131.736 104.822C132.277 104.421 133.001 104.22 133.906 104.22C134.839 104.22 135.539 104.439 136.006 104.878C136.473 105.307 136.706 105.942 136.706 106.782V110.128C136.706 110.343 136.72 110.562 136.748 110.786C136.776 111.01 136.818 111.248 136.874 111.5H135.46ZM132.996 111.64C132.268 111.64 131.689 111.463 131.26 111.108C130.831 110.744 130.616 110.254 130.616 109.638C130.616 109.003 130.84 108.504 131.288 108.14C131.745 107.767 132.399 107.515 133.248 107.384L135.6 107.006V108.028L133.472 108.364C132.996 108.439 132.637 108.565 132.394 108.742C132.161 108.919 132.044 109.176 132.044 109.512C132.044 109.839 132.151 110.086 132.366 110.254C132.59 110.413 132.912 110.492 133.332 110.492C133.892 110.492 134.354 110.357 134.718 110.086C135.091 109.815 135.278 109.475 135.278 109.064L135.46 110.1C135.292 110.595 134.993 110.977 134.564 111.248C134.135 111.509 133.612 111.64 132.996 111.64ZM141.592 111.64C140.911 111.64 140.304 111.481 139.772 111.164C139.24 110.837 138.82 110.394 138.512 109.834C138.213 109.274 138.064 108.635 138.064 107.916C138.064 107.197 138.213 106.563 138.512 106.012C138.82 105.452 139.24 105.013 139.772 104.696C140.304 104.379 140.906 104.22 141.578 104.22C142.147 104.22 142.656 104.327 143.104 104.542C143.552 104.757 143.921 105.055 144.21 105.438C144.499 105.821 144.686 106.273 144.77 106.796H143.398C143.305 106.376 143.099 106.04 142.782 105.788C142.474 105.536 142.082 105.41 141.606 105.41C141.195 105.41 140.836 105.513 140.528 105.718C140.22 105.923 139.982 106.213 139.814 106.586C139.646 106.959 139.562 107.403 139.562 107.916C139.562 108.42 139.646 108.863 139.814 109.246C139.982 109.629 140.22 109.927 140.528 110.142C140.836 110.347 141.2 110.45 141.62 110.45C142.077 110.45 142.465 110.329 142.782 110.086C143.109 109.834 143.319 109.498 143.412 109.078H144.784C144.691 109.591 144.495 110.039 144.196 110.422C143.907 110.805 143.538 111.103 143.09 111.318C142.642 111.533 142.143 111.64 141.592 111.64ZM146.226 111.5V101.42H147.682V111.5H146.226ZM151.294 111.5V106.908C151.294 106.413 151.168 106.045 150.916 105.802C150.673 105.559 150.309 105.438 149.824 105.438C149.404 105.438 149.03 105.531 148.704 105.718C148.386 105.905 148.134 106.161 147.948 106.488C147.77 106.815 147.682 107.202 147.682 107.65L147.5 105.942C147.733 105.41 148.092 104.99 148.578 104.682C149.063 104.374 149.628 104.22 150.272 104.22C151.037 104.22 151.639 104.435 152.078 104.864C152.516 105.293 152.736 105.863 152.736 106.572V111.5H151.294ZM157.796 111.64C157.077 111.64 156.443 111.481 155.892 111.164C155.351 110.847 154.926 110.408 154.618 109.848C154.31 109.288 154.156 108.644 154.156 107.916C154.156 107.179 154.305 106.535 154.604 105.984C154.912 105.424 155.341 104.99 155.892 104.682C156.443 104.374 157.073 104.22 157.782 104.22C158.473 104.22 159.07 104.369 159.574 104.668C160.087 104.957 160.479 105.363 160.75 105.886C161.03 106.409 161.17 107.029 161.17 107.748C161.17 107.86 161.165 107.967 161.156 108.07C161.156 108.163 161.147 108.261 161.128 108.364H155.136V107.272H160.106L159.742 107.706C159.742 106.941 159.569 106.357 159.224 105.956C158.879 105.555 158.398 105.354 157.782 105.354C157.119 105.354 156.592 105.583 156.2 106.04C155.817 106.488 155.626 107.113 155.626 107.916C155.626 108.728 155.817 109.363 156.2 109.82C156.592 110.277 157.133 110.506 157.824 110.506C158.244 110.506 158.608 110.422 158.916 110.254C159.224 110.077 159.453 109.82 159.602 109.484H160.974C160.741 110.156 160.344 110.683 159.784 111.066C159.233 111.449 158.571 111.64 157.796 111.64ZM167.852 111.5V109.862L167.992 109.904C167.843 110.436 167.535 110.861 167.068 111.178C166.602 111.486 166.042 111.64 165.388 111.64C164.744 111.64 164.18 111.486 163.694 111.178C163.218 110.87 162.845 110.441 162.574 109.89C162.313 109.339 162.182 108.695 162.182 107.958C162.182 107.211 162.318 106.558 162.588 105.998C162.859 105.438 163.237 105.004 163.722 104.696C164.208 104.388 164.777 104.234 165.43 104.234C166.112 104.234 166.672 104.397 167.11 104.724C167.558 105.041 167.852 105.489 167.992 106.068L167.796 106.096V101.42H169.238V111.5H167.852ZM165.752 110.422C166.396 110.422 166.905 110.203 167.278 109.764C167.652 109.316 167.838 108.7 167.838 107.916C167.838 107.151 167.647 106.549 167.264 106.11C166.891 105.662 166.382 105.438 165.738 105.438C165.104 105.438 164.6 105.662 164.226 106.11C163.862 106.549 163.68 107.165 163.68 107.958C163.68 108.733 163.862 109.339 164.226 109.778C164.6 110.207 165.108 110.422 165.752 110.422Z" fill="white"/>
<rect x="331.167" y="93" width="38" height="26" rx="13" fill="#885FA8"/>
<path d="M343.711 110V102.548L343.939 102.644C343.835 102.868 343.655 103.088 343.399 103.304C343.143 103.52 342.847 103.708 342.511 103.868C342.175 104.02 341.819 104.128 341.443 104.192V102.968C341.795 102.912 342.139 102.808 342.475 102.656C342.811 102.496 343.111 102.304 343.375 102.08C343.639 101.848 343.835 101.608 343.963 101.36H344.947V110H343.711ZM346.262 110V108.956C347.102 108.268 347.802 107.668 348.362 107.156C348.93 106.644 349.382 106.188 349.718 105.788C350.054 105.388 350.294 105.024 350.438 104.696C350.582 104.368 350.654 104.04 350.654 103.712C350.654 103.264 350.522 102.916 350.258 102.668C350.002 102.412 349.646 102.284 349.19 102.284C348.718 102.284 348.334 102.424 348.038 102.704C347.742 102.976 347.558 103.364 347.486 103.868H346.19C346.27 103.076 346.578 102.44 347.114 101.96C347.658 101.48 348.374 101.24 349.262 101.24C350.11 101.24 350.778 101.464 351.266 101.912C351.762 102.36 352.01 102.976 352.01 103.76C352.01 104.16 351.934 104.56 351.782 104.96C351.638 105.352 351.398 105.764 351.062 106.196C350.726 106.62 350.274 107.092 349.706 107.612C349.146 108.124 348.45 108.708 347.618 109.364L347.318 108.956H352.166V110H346.262ZM354.313 110C354.425 108.64 354.749 107.304 355.285 105.992C355.821 104.68 356.581 103.384 357.565 102.104L357.601 102.404H352.693V101.36H358.705V102.284C358.097 103.164 357.585 104.028 357.169 104.876C356.753 105.716 356.425 106.556 356.185 107.396C355.953 108.236 355.801 109.104 355.729 110H354.313Z" fill="white"/>
<rect x="52.6665" y="135.5" width="316" height="71" rx="11.5" fill="#131316"/>
<rect x="52.6665" y="135.5" width="316" height="71" rx="11.5" stroke="#1D1D20"/>
<path d="M69.2845 162V152.64H70.3505V162H69.2845ZM69.8305 157.983V157.047H74.8745V157.983H69.8305ZM69.8305 153.576V152.64H75.2385V153.576H69.8305ZM79.3385 162.13C78.6885 162.13 78.1165 161.978 77.6225 161.675C77.1285 161.372 76.7428 160.96 76.4655 160.44C76.1968 159.911 76.0625 159.318 76.0625 158.659C76.0625 157.992 76.2011 157.402 76.4785 156.891C76.7558 156.38 77.1371 155.977 77.6225 155.682C78.1165 155.387 78.6885 155.24 79.3385 155.24C79.9971 155.24 80.5691 155.387 81.0545 155.682C81.5485 155.977 81.9298 156.38 82.1985 156.891C82.4758 157.402 82.6145 157.992 82.6145 158.659C82.6145 159.318 82.4758 159.911 82.1985 160.44C81.9298 160.96 81.5485 161.372 81.0545 161.675C80.5691 161.978 79.9971 162.13 79.3385 162.13ZM79.3385 161.246C79.7891 161.246 80.1791 161.138 80.5085 160.921C80.8378 160.696 81.0935 160.388 81.2755 159.998C81.4575 159.608 81.5485 159.157 81.5485 158.646C81.5485 157.883 81.3448 157.272 80.9375 156.813C80.5388 156.354 80.0058 156.124 79.3385 156.124C78.6798 156.124 78.1468 156.354 77.7395 156.813C77.3321 157.272 77.1285 157.883 77.1285 158.646C77.1285 159.157 77.2195 159.608 77.4015 159.998C77.5835 160.388 77.8391 160.696 78.1685 160.921C78.5065 161.138 78.8965 161.246 79.3385 161.246ZM84.1743 162V152.64H85.2143V162H84.1743ZM87.2973 162V152.64H88.3373V162H87.2973ZM93.1764 162.13C92.5264 162.13 91.9544 161.978 91.4604 161.675C90.9664 161.372 90.5807 160.96 90.3034 160.44C90.0347 159.911 89.9004 159.318 89.9004 158.659C89.9004 157.992 90.039 157.402 90.3164 156.891C90.5937 156.38 90.975 155.977 91.4604 155.682C91.9544 155.387 92.5264 155.24 93.1764 155.24C93.835 155.24 94.407 155.387 94.8924 155.682C95.3864 155.977 95.7677 156.38 96.0364 156.891C96.3137 157.402 96.4524 157.992 96.4524 158.659C96.4524 159.318 96.3137 159.911 96.0364 160.44C95.7677 160.96 95.3864 161.372 94.8924 161.675C94.407 161.978 93.835 162.13 93.1764 162.13ZM93.1764 161.246C93.627 161.246 94.017 161.138 94.3464 160.921C94.6757 160.696 94.9314 160.388 95.1134 159.998C95.2954 159.608 95.3864 159.157 95.3864 158.646C95.3864 157.883 95.1827 157.272 94.7754 156.813C94.3767 156.354 93.8437 156.124 93.1764 156.124C92.5177 156.124 91.9847 156.354 91.5774 156.813C91.17 157.272 90.9664 157.883 90.9664 158.646C90.9664 159.157 91.0574 159.608 91.2394 159.998C91.4214 160.388 91.677 160.696 92.0064 160.921C92.3444 161.138 92.7344 161.246 93.1764 161.246ZM99.2372 162L97.2092 155.37H98.2622L99.8222 161.051H99.5622L101.434 155.37H102.279L104.164 161.051H103.904L105.451 155.37H106.452L104.424 162H103.579L101.707 156.449H101.98L100.082 162H99.2372ZM110.441 162.13C109.808 162.13 109.249 161.983 108.764 161.688C108.279 161.385 107.897 160.973 107.62 160.453C107.343 159.933 107.204 159.335 107.204 158.659C107.204 157.983 107.338 157.389 107.607 156.878C107.884 156.358 108.27 155.955 108.764 155.669C109.258 155.383 109.826 155.24 110.467 155.24C111.082 155.24 111.615 155.374 112.066 155.643C112.525 155.912 112.876 156.289 113.119 156.774C113.37 157.259 113.496 157.831 113.496 158.49C113.496 158.577 113.492 158.659 113.483 158.737C113.483 158.815 113.474 158.902 113.457 158.997H107.984V158.126H112.82L112.482 158.607C112.482 157.81 112.304 157.199 111.949 156.774C111.602 156.341 111.108 156.124 110.467 156.124C109.808 156.124 109.275 156.354 108.868 156.813C108.469 157.264 108.27 157.875 108.27 158.646C108.27 159.435 108.469 160.067 108.868 160.544C109.275 161.012 109.817 161.246 110.493 161.246C110.918 161.246 111.29 161.155 111.611 160.973C111.932 160.782 112.166 160.514 112.313 160.167H113.301C113.084 160.774 112.72 161.255 112.209 161.61C111.706 161.957 111.117 162.13 110.441 162.13ZM115.062 162V155.37H116.037V157.06H116.102V162H115.062ZM116.102 158.542L115.933 156.969C116.089 156.406 116.366 155.977 116.765 155.682C117.164 155.387 117.623 155.24 118.143 155.24C118.36 155.24 118.507 155.257 118.585 155.292V156.293C118.542 156.276 118.481 156.267 118.403 156.267C118.325 156.258 118.23 156.254 118.117 156.254C117.458 156.254 116.956 156.453 116.609 156.852C116.271 157.242 116.102 157.805 116.102 158.542ZM121.996 162.13C121.181 162.13 120.531 161.944 120.046 161.571C119.56 161.19 119.283 160.652 119.214 159.959H120.215C120.275 160.384 120.462 160.709 120.774 160.934C121.086 161.159 121.502 161.272 122.022 161.272C122.481 161.272 122.841 161.185 123.101 161.012C123.361 160.839 123.491 160.592 123.491 160.271C123.491 160.046 123.417 159.851 123.27 159.686C123.122 159.513 122.828 159.37 122.386 159.257L121.32 158.984C120.713 158.828 120.258 158.59 119.955 158.269C119.651 157.94 119.5 157.55 119.5 157.099C119.5 156.527 119.712 156.076 120.137 155.747C120.561 155.409 121.138 155.24 121.866 155.24C122.585 155.24 123.17 155.413 123.621 155.76C124.071 156.107 124.327 156.588 124.388 157.203H123.387C123.326 156.848 123.161 156.575 122.893 156.384C122.624 156.193 122.269 156.098 121.827 156.098C121.402 156.098 121.073 156.18 120.839 156.345C120.605 156.501 120.488 156.726 120.488 157.021C120.488 157.246 120.57 157.441 120.735 157.606C120.908 157.771 121.194 157.909 121.593 158.022L122.633 158.308C123.248 158.473 123.712 158.724 124.024 159.062C124.336 159.4 124.492 159.807 124.492 160.284C124.492 160.865 124.271 161.32 123.829 161.649C123.387 161.97 122.776 162.13 121.996 162.13Z" fill="#CACACE"/>
<rect x="68.1665" y="179.5" width="222" height="5" rx="2.5" fill="#474752"/>
<rect x="68.1665" y="179.5" width="179" height="5" rx="2.5" fill="#885FA8"/>
<rect x="306.667" y="169.5" width="46" height="25" rx="12.5" fill="#1D1D20"/>
<rect x="306.667" y="169.5" width="46" height="25" rx="12.5" stroke="#28282C"/>
<path d="M317.707 186.12C317.083 186.12 316.539 186.012 316.075 185.796C315.619 185.58 315.263 185.284 315.007 184.908C314.759 184.524 314.635 184.092 314.635 183.612C314.635 183.18 314.727 182.792 314.911 182.448C315.103 182.104 315.363 181.832 315.691 181.632C316.027 181.424 316.399 181.32 316.807 181.32L316.891 181.572C316.483 181.572 316.127 181.488 315.823 181.32C315.519 181.144 315.279 180.904 315.103 180.6C314.935 180.288 314.851 179.94 314.851 179.556C314.851 179.1 314.971 178.7 315.211 178.356C315.451 178.004 315.783 177.732 316.207 177.54C316.639 177.34 317.143 177.24 317.719 177.24C318.287 177.24 318.783 177.34 319.207 177.54C319.631 177.732 319.963 178.004 320.203 178.356C320.443 178.7 320.563 179.1 320.563 179.556C320.563 179.94 320.475 180.284 320.299 180.588C320.131 180.892 319.895 181.132 319.591 181.308C319.287 181.484 318.927 181.572 318.511 181.572L318.607 181.32C319.023 181.32 319.395 181.424 319.723 181.632C320.051 181.832 320.307 182.104 320.491 182.448C320.683 182.792 320.779 183.184 320.779 183.624C320.779 184.104 320.651 184.532 320.395 184.908C320.147 185.284 319.791 185.58 319.327 185.796C318.871 186.012 318.331 186.12 317.707 186.12ZM317.707 185.076C318.235 185.076 318.651 184.936 318.955 184.656C319.267 184.368 319.423 183.984 319.423 183.504C319.423 183.032 319.267 182.66 318.955 182.388C318.651 182.116 318.235 181.98 317.707 181.98C317.179 181.98 316.759 182.116 316.447 182.388C316.143 182.66 315.991 183.032 315.991 183.504C315.991 183.984 316.143 184.368 316.447 184.656C316.759 184.936 317.179 185.076 317.707 185.076ZM317.707 180.984C318.171 180.984 318.535 180.864 318.799 180.624C319.071 180.384 319.207 180.06 319.207 179.652C319.207 179.236 319.067 178.904 318.787 178.656C318.515 178.408 318.155 178.284 317.707 178.284C317.251 178.284 316.887 178.408 316.615 178.656C316.343 178.904 316.207 179.236 316.207 179.652C316.207 180.06 316.343 180.384 316.615 180.624C316.887 180.864 317.251 180.984 317.707 180.984ZM323.777 186V178.548L324.005 178.644C323.901 178.868 323.721 179.088 323.465 179.304C323.209 179.52 322.913 179.708 322.577 179.868C322.241 180.02 321.885 180.128 321.509 180.192V178.968C321.861 178.912 322.205 178.808 322.541 178.656C322.877 178.496 323.177 178.304 323.441 178.08C323.705 177.848 323.901 177.608 324.029 177.36H325.013V186H323.777ZM326.257 186V184.512H327.733V186H326.257ZM331.463 186.12C330.919 186.12 330.439 186.016 330.023 185.808C329.615 185.6 329.287 185.3 329.039 184.908C328.791 184.516 328.635 184.036 328.571 183.468H329.879C329.951 184.028 330.127 184.436 330.407 184.692C330.687 184.948 331.051 185.076 331.499 185.076C331.835 185.076 332.119 185.008 332.351 184.872C332.591 184.736 332.783 184.528 332.927 184.248C333.079 183.968 333.191 183.612 333.263 183.18C333.335 182.74 333.371 182.216 333.371 181.608V180.828L333.719 180.852C333.639 181.228 333.479 181.56 333.239 181.848C332.999 182.128 332.699 182.344 332.339 182.496C331.987 182.648 331.595 182.724 331.163 182.724C330.627 182.724 330.155 182.608 329.747 182.376C329.339 182.144 329.019 181.824 328.787 181.416C328.555 181 328.439 180.528 328.439 180C328.439 179.44 328.567 178.956 328.823 178.548C329.079 178.132 329.435 177.812 329.891 177.588C330.355 177.356 330.887 177.24 331.487 177.24C332.551 177.24 333.363 177.612 333.923 178.356C334.491 179.1 334.775 180.184 334.775 181.608C334.775 182.56 334.643 183.376 334.379 184.056C334.123 184.728 333.747 185.24 333.251 185.592C332.763 185.944 332.167 186.12 331.463 186.12ZM331.535 181.704C332.055 181.704 332.471 181.56 332.783 181.272C333.103 180.984 333.263 180.584 333.263 180.072C333.263 179.728 333.187 179.424 333.035 179.16C332.891 178.888 332.687 178.676 332.423 178.524C332.159 178.364 331.851 178.284 331.499 178.284C330.995 178.284 330.591 178.444 330.287 178.764C329.991 179.076 329.843 179.492 329.843 180.012C329.843 180.516 329.991 180.924 330.287 181.236C330.583 181.548 330.999 181.704 331.535 181.704ZM336.244 186L342.652 177.36H343.768L337.372 186H336.244ZM342.304 186.12C341.968 186.12 341.652 186.04 341.356 185.88C341.06 185.72 340.82 185.476 340.636 185.148C340.452 184.82 340.36 184.404 340.36 183.9C340.36 183.396 340.448 182.984 340.624 182.664C340.808 182.336 341.048 182.092 341.344 181.932C341.64 181.772 341.96 181.692 342.304 181.692C342.664 181.692 342.992 181.772 343.288 181.932C343.592 182.092 343.832 182.336 344.008 182.664C344.184 182.984 344.272 183.396 344.272 183.9C344.272 184.404 344.18 184.82 343.996 185.148C343.812 185.476 343.568 185.72 343.264 185.88C342.968 186.04 342.648 186.12 342.304 186.12ZM342.304 185.34C342.608 185.34 342.856 185.216 343.048 184.968C343.248 184.712 343.348 184.352 343.348 183.888C343.348 183.432 343.248 183.084 343.048 182.844C342.856 182.596 342.608 182.472 342.304 182.472C342 182.472 341.756 182.592 341.572 182.832C341.388 183.072 341.296 183.424 341.296 183.888C341.296 184.36 341.388 184.72 341.572 184.968C341.756 185.216 342 185.34 342.304 185.34ZM337.624 181.668C337.28 181.668 336.96 181.588 336.664 181.428C336.368 181.268 336.128 181.024 335.944 180.696C335.768 180.368 335.68 179.952 335.68 179.448C335.68 178.944 335.768 178.532 335.944 178.212C336.128 177.884 336.368 177.64 336.664 177.48C336.96 177.32 337.28 177.24 337.624 177.24C337.984 177.24 338.312 177.32 338.608 177.48C338.904 177.64 339.14 177.884 339.316 178.212C339.492 178.532 339.58 178.944 339.58 179.448C339.58 179.952 339.488 180.368 339.304 180.696C339.12 181.024 338.88 181.268 338.584 181.428C338.288 181.588 337.968 181.668 337.624 181.668ZM337.624 180.888C337.92 180.888 338.164 180.764 338.356 180.516C338.556 180.268 338.656 179.908 338.656 179.436C338.656 178.98 338.56 178.632 338.368 178.392C338.176 178.144 337.928 178.02 337.624 178.02C337.32 178.02 337.072 178.14 336.88 178.38C336.696 178.62 336.604 178.972 336.604 179.436C336.604 179.908 336.696 180.268 336.88 180.516C337.072 180.764 337.32 180.888 337.624 180.888Z" fill="#94969E"/>
<rect x="52.6665" y="217.5" width="316" height="71" rx="11.5" fill="#131316"/>
<rect x="52.6665" y="217.5" width="316" height="71" rx="11.5" stroke="#1D1D20"/>
<path d="M69.2845 244V234.64H70.3895L75.7585 242.518L75.6025 242.544V234.64H76.6165V244H75.5115L70.1425 236.122L70.2985 236.096V244H69.2845ZM81.5348 244.13C80.8848 244.13 80.3128 243.978 79.8188 243.675C79.3248 243.372 78.9391 242.96 78.6618 242.44C78.3931 241.911 78.2588 241.318 78.2588 240.659C78.2588 239.992 78.3974 239.402 78.6748 238.891C78.9521 238.38 79.3334 237.977 79.8188 237.682C80.3128 237.387 80.8848 237.24 81.5348 237.24C82.1934 237.24 82.7654 237.387 83.2508 237.682C83.7448 237.977 84.1261 238.38 84.3948 238.891C84.6721 239.402 84.8108 239.992 84.8108 240.659C84.8108 241.318 84.6721 241.911 84.3948 242.44C84.1261 242.96 83.7448 243.372 83.2508 243.675C82.7654 243.978 82.1934 244.13 81.5348 244.13ZM81.5348 243.246C81.9854 243.246 82.3754 243.138 82.7048 242.921C83.0341 242.696 83.2898 242.388 83.4718 241.998C83.6538 241.608 83.7448 241.157 83.7448 240.646C83.7448 239.883 83.5411 239.272 83.1338 238.813C82.7351 238.354 82.2021 238.124 81.5348 238.124C80.8761 238.124 80.3431 238.354 79.9358 238.813C79.5284 239.272 79.3248 239.883 79.3248 240.646C79.3248 241.157 79.4158 241.608 79.5978 241.998C79.7798 242.388 80.0354 242.696 80.3648 242.921C80.7028 243.138 81.0928 243.246 81.5348 243.246ZM86.3706 244V237.37H87.3456V238.93H87.4106V244H86.3706ZM91.1156 244V239.658C91.1156 239.155 90.9899 238.778 90.7386 238.527C90.4872 238.276 90.1146 238.15 89.6206 238.15C89.1872 238.15 88.8016 238.245 88.4636 238.436C88.1342 238.627 87.8742 238.891 87.6836 239.229C87.5016 239.567 87.4106 239.961 87.4106 240.412L87.2416 238.839C87.4669 238.345 87.8092 237.955 88.2686 237.669C88.7366 237.383 89.2652 237.24 89.8546 237.24C90.5479 237.24 91.1026 237.439 91.5186 237.838C91.9432 238.228 92.1556 238.744 92.1556 239.385V244H91.1156ZM93.5688 240.958V239.97H98.0668V240.958H93.5688ZM99.815 244V236.434C99.815 235.827 99.9883 235.355 100.335 235.017C100.69 234.679 101.228 234.51 101.947 234.51C102.12 234.51 102.255 234.519 102.35 234.536C102.454 234.553 102.541 234.575 102.61 234.601V235.42C102.549 235.403 102.463 235.385 102.35 235.368C102.246 235.351 102.133 235.342 102.012 235.342C101.613 235.342 101.319 235.442 101.128 235.641C100.946 235.84 100.855 236.122 100.855 236.486V244H99.815ZM98.45 238.254V237.37H102.467V238.254H98.45ZM106.367 244.13C105.717 244.13 105.145 243.978 104.651 243.675C104.157 243.372 103.771 242.96 103.494 242.44C103.225 241.911 103.091 241.318 103.091 240.659C103.091 239.992 103.229 239.402 103.507 238.891C103.784 238.38 104.165 237.977 104.651 237.682C105.145 237.387 105.717 237.24 106.367 237.24C107.025 237.24 107.597 237.387 108.083 237.682C108.577 237.977 108.958 238.38 109.227 238.891C109.504 239.402 109.643 239.992 109.643 240.659C109.643 241.318 109.504 241.911 109.227 242.44C108.958 242.96 108.577 243.372 108.083 243.675C107.597 243.978 107.025 244.13 106.367 244.13ZM106.367 243.246C106.817 243.246 107.207 243.138 107.537 242.921C107.866 242.696 108.122 242.388 108.304 241.998C108.486 241.608 108.577 241.157 108.577 240.646C108.577 239.883 108.373 239.272 107.966 238.813C107.567 238.354 107.034 238.124 106.367 238.124C105.708 238.124 105.175 238.354 104.768 238.813C104.36 239.272 104.157 239.883 104.157 240.646C104.157 241.157 104.248 241.608 104.43 241.998C104.612 242.388 104.867 242.696 105.197 242.921C105.535 243.138 105.925 243.246 106.367 243.246ZM111.203 244V234.64H112.243V244H111.203ZM114.326 244V234.64H115.366V244H114.326ZM120.205 244.13C119.555 244.13 118.983 243.978 118.489 243.675C117.995 243.372 117.609 242.96 117.332 242.44C117.063 241.911 116.929 241.318 116.929 240.659C116.929 239.992 117.067 239.402 117.345 238.891C117.622 238.38 118.003 237.977 118.489 237.682C118.983 237.387 119.555 237.24 120.205 237.24C120.863 237.24 121.435 237.387 121.921 237.682C122.415 237.977 122.796 238.38 123.065 238.891C123.342 239.402 123.481 239.992 123.481 240.659C123.481 241.318 123.342 241.911 123.065 242.44C122.796 242.96 122.415 243.372 121.921 243.675C121.435 243.978 120.863 244.13 120.205 244.13ZM120.205 243.246C120.655 243.246 121.045 243.138 121.375 242.921C121.704 242.696 121.96 242.388 122.142 241.998C122.324 241.608 122.415 241.157 122.415 240.646C122.415 239.883 122.211 239.272 121.804 238.813C121.405 238.354 120.872 238.124 120.205 238.124C119.546 238.124 119.013 238.354 118.606 238.813C118.198 239.272 117.995 239.883 117.995 240.646C117.995 241.157 118.086 241.608 118.268 241.998C118.45 242.388 118.705 242.696 119.035 242.921C119.373 243.138 119.763 243.246 120.205 243.246ZM126.266 244L124.238 237.37H125.291L126.851 243.051H126.591L128.463 237.37H129.308L131.193 243.051H130.933L132.48 237.37H133.481L131.453 244H130.608L128.736 238.449H129.009L127.111 244H126.266ZM137.469 244.13C136.837 244.13 136.278 243.983 135.792 243.688C135.307 243.385 134.926 242.973 134.648 242.453C134.371 241.933 134.232 241.335 134.232 240.659C134.232 239.983 134.367 239.389 134.635 238.878C134.913 238.358 135.298 237.955 135.792 237.669C136.286 237.383 136.854 237.24 137.495 237.24C138.111 237.24 138.644 237.374 139.094 237.643C139.554 237.912 139.905 238.289 140.147 238.774C140.399 239.259 140.524 239.831 140.524 240.49C140.524 240.577 140.52 240.659 140.511 240.737C140.511 240.815 140.503 240.902 140.485 240.997H135.012V240.126H139.848L139.51 240.607C139.51 239.81 139.333 239.199 138.977 238.774C138.631 238.341 138.137 238.124 137.495 238.124C136.837 238.124 136.304 238.354 135.896 238.813C135.498 239.264 135.298 239.875 135.298 240.646C135.298 241.435 135.498 242.067 135.896 242.544C136.304 243.012 136.845 243.246 137.521 243.246C137.946 243.246 138.319 243.155 138.639 242.973C138.96 242.782 139.194 242.514 139.341 242.167H140.329C140.113 242.774 139.749 243.255 139.237 243.61C138.735 243.957 138.145 244.13 137.469 244.13ZM142.09 244V237.37H143.065V239.06H143.13V244H142.09ZM143.13 240.542L142.961 238.969C143.117 238.406 143.395 237.977 143.793 237.682C144.192 237.387 144.651 237.24 145.171 237.24C145.388 237.24 145.535 237.257 145.613 237.292V238.293C145.57 238.276 145.509 238.267 145.431 238.267C145.353 238.258 145.258 238.254 145.145 238.254C144.487 238.254 143.984 238.453 143.637 238.852C143.299 239.242 143.13 239.805 143.13 240.542ZM149.024 244.13C148.209 244.13 147.559 243.944 147.074 243.571C146.589 243.19 146.311 242.652 146.242 241.959H147.243C147.304 242.384 147.49 242.709 147.802 242.934C148.114 243.159 148.53 243.272 149.05 243.272C149.509 243.272 149.869 243.185 150.129 243.012C150.389 242.839 150.519 242.592 150.519 242.271C150.519 242.046 150.445 241.851 150.298 241.686C150.151 241.513 149.856 241.37 149.414 241.257L148.348 240.984C147.741 240.828 147.286 240.59 146.983 240.269C146.68 239.94 146.528 239.55 146.528 239.099C146.528 238.527 146.74 238.076 147.165 237.747C147.59 237.409 148.166 237.24 148.894 237.24C149.613 237.24 150.198 237.413 150.649 237.76C151.1 238.107 151.355 238.588 151.416 239.203H150.415C150.354 238.848 150.19 238.575 149.921 238.384C149.652 238.193 149.297 238.098 148.855 238.098C148.43 238.098 148.101 238.18 147.867 238.345C147.633 238.501 147.516 238.726 147.516 239.021C147.516 239.246 147.598 239.441 147.763 239.606C147.936 239.771 148.222 239.909 148.621 240.022L149.661 240.308C150.276 240.473 150.74 240.724 151.052 241.062C151.364 241.4 151.52 241.807 151.52 242.284C151.52 242.865 151.299 243.32 150.857 243.649C150.415 243.97 149.804 244.13 149.024 244.13Z" fill="#CACACE"/>
<rect x="309.667" y="251.5" width="43" height="25" rx="12.5" fill="#1D1D20"/>
<rect x="309.667" y="251.5" width="43" height="25" rx="12.5" stroke="#28282C"/>
</g>
<path d="M386 90H-2V275H386V90Z" fill="url(#paint0_linear_613_1124)"/>
</g>
<defs>
<linearGradient id="paint0_linear_613_1124" x1="192" y1="90" x2="192" y2="275" gradientUnits="userSpaceOnUse">
<stop stop-color="#0E0E10" stop-opacity="0"/>
<stop offset="1"/>
</linearGradient>
<clipPath id="clip0_613_1124">
<rect width="386.556" height="256" fill="white"/>
</clipPath>
<clipPath id="clip1_613_1124">
<rect x="30" y="3" width="370" height="315" rx="20" fill="white"/>
</clipPath>
<clipPath id="clip2_613_1124">
<rect width="15.2381" height="16" fill="white" transform="translate(99.1665 43.5)"/>
</clipPath>
</defs>
</svg>
