<svg width="1440" height="161" viewBox="0 0 1440 161" fill="none" xmlns="http://www.w3.org/2000/svg">
<g opacity="0.33">
<path d="M2.5 83C1.11929 83 -4.89256e-08 81.8807 -1.09278e-07 80.5C-1.69631e-07 79.1193 1.11929 78 2.5 78L158 78L158 83L2.5 83Z" fill="url(#paint0_linear_611_2194)" fill-opacity="0.3"/>
<rect x="158" y="72.5" width="4" height="16" rx="2" fill="white" fill-opacity="0.3"/>
<rect x="186" y="65.5" width="4" height="30" rx="2" fill="url(#paint1_linear_611_2194)" fill-opacity="0.3"/>
<rect x="214" y="52" width="4" height="57" rx="2" fill="url(#paint2_linear_611_2194)" fill-opacity="0.3"/>
<rect x="242" y="43" width="4" height="75" rx="2" fill="url(#paint3_linear_611_2194)" fill-opacity="0.3"/>
<rect x="270" y="33" width="4" height="95" rx="2" fill="url(#paint4_linear_611_2194)" fill-opacity="0.3"/>
<rect x="298" y="22" width="4" height="117" rx="2" fill="url(#paint5_linear_611_2194)" fill-opacity="0.3"/>
<rect x="326" y="12" width="4" height="137" rx="2" fill="url(#paint6_linear_611_2194)" fill-opacity="0.3"/>
<rect x="354" y="12" width="4" height="137" rx="2" fill="url(#paint7_linear_611_2194)" fill-opacity="0.3"/>
<rect x="382" y="19.5" width="4" height="122" rx="2" fill="url(#paint8_linear_611_2194)" fill-opacity="0.3"/>
<rect x="410" y="29" width="4" height="103" rx="2" fill="url(#paint9_linear_611_2194)" fill-opacity="0.3"/>
<rect x="438" y="38.5" width="4" height="84" rx="2" fill="url(#paint10_linear_611_2194)" fill-opacity="0.3"/>
<rect x="466" y="51.5" width="4" height="58" rx="2" fill="url(#paint11_linear_611_2194)" fill-opacity="0.3"/>
<rect x="494" y="65" width="4" height="31" rx="2" fill="url(#paint12_linear_611_2194)" fill-opacity="0.3"/>
<rect x="522" y="50" width="4" height="61" rx="2" fill="url(#paint13_linear_611_2194)" fill-opacity="0.3"/>
<rect x="550" y="40.5" width="4" height="80" rx="2" fill="url(#paint14_linear_611_2194)" fill-opacity="0.3"/>
<rect x="578" y="31.5" width="4" height="98" rx="2" fill="url(#paint15_linear_611_2194)" fill-opacity="0.3"/>
<rect x="606" y="22.5" width="4" height="116" rx="2" fill="url(#paint16_linear_611_2194)" fill-opacity="0.3"/>
<rect x="634" y="8.5" width="4" height="144" rx="2" fill="url(#paint17_linear_611_2194)" fill-opacity="0.3"/>
<rect x="662" y="19.5" width="4" height="122" rx="2" fill="url(#paint18_linear_611_2194)" fill-opacity="0.3"/>
<rect x="690" y="8.5" width="4" height="144" rx="2" fill="url(#paint19_linear_611_2194)" fill-opacity="0.3"/>
<rect x="718" width="4" height="161" rx="2" fill="url(#paint20_linear_611_2194)" fill-opacity="0.3"/>
<rect x="746" y="0.5" width="4" height="160" rx="2" fill="url(#paint21_linear_611_2194)" fill-opacity="0.3"/>
<rect x="774" y="28" width="4" height="105" rx="2" fill="url(#paint22_linear_611_2194)" fill-opacity="0.3"/>
<rect x="802" y="11" width="4" height="139" rx="2" fill="url(#paint23_linear_611_2194)" fill-opacity="0.3"/>
<rect x="830" y="20.5" width="4" height="120" rx="2" fill="url(#paint24_linear_611_2194)" fill-opacity="0.3"/>
<rect x="858" y="30.5" width="4" height="100" rx="2" fill="url(#paint25_linear_611_2194)" fill-opacity="0.3"/>
<rect x="886" y="42" width="4" height="77" rx="2" fill="url(#paint26_linear_611_2194)" fill-opacity="0.3"/>
<rect x="914" y="56" width="4" height="49" rx="2" fill="url(#paint27_linear_611_2194)" fill-opacity="0.3"/>
<rect x="942" y="42" width="4" height="77" rx="2" fill="url(#paint28_linear_611_2194)" fill-opacity="0.3"/>
<rect x="970" y="20.5" width="4" height="120" rx="2" fill="url(#paint29_linear_611_2194)" fill-opacity="0.3"/>
<rect x="998" y="31.5" width="4" height="98" rx="2" fill="url(#paint30_linear_611_2194)" fill-opacity="0.3"/>
<rect x="1026" y="43.5" width="4" height="74" rx="2" fill="url(#paint31_linear_611_2194)" fill-opacity="0.3"/>
<rect x="1054" y="54" width="4" height="53" rx="2" fill="url(#paint32_linear_611_2194)" fill-opacity="0.3"/>
<rect x="1082" y="45.5" width="4" height="70" rx="2" fill="url(#paint33_linear_611_2194)" fill-opacity="0.3"/>
<rect x="1110" y="36.5" width="4" height="88" rx="2" fill="url(#paint34_linear_611_2194)" fill-opacity="0.3"/>
<rect x="1138" y="42.5" width="4" height="76" rx="2" fill="url(#paint35_linear_611_2194)" fill-opacity="0.3"/>
<rect x="1166" y="35.5" width="4" height="90" rx="2" fill="url(#paint36_linear_611_2194)" fill-opacity="0.3"/>
<rect x="1194" y="44.5" width="4" height="72" rx="2" fill="url(#paint37_linear_611_2194)" fill-opacity="0.3"/>
<rect x="1222" y="51.5" width="4" height="58" rx="2" fill="url(#paint38_linear_611_2194)" fill-opacity="0.3"/>
<rect x="1250" y="60" width="4" height="41" rx="2" fill="url(#paint39_linear_611_2194)" fill-opacity="0.3"/>
<rect x="1278" y="60" width="4" height="41" rx="2" fill="url(#paint40_linear_611_2194)" fill-opacity="0.3"/>
<path d="M1282 83L1282 78L1437.5 78C1438.88 78 1440 79.1193 1440 80.5C1440 81.8807 1438.88 83 1437.5 83L1282 83Z" fill="url(#paint41_linear_611_2194)" fill-opacity="0.3"/>
</g>
<defs>
<linearGradient id="paint0_linear_611_2194" x1="79" y1="78" x2="79" y2="83" gradientUnits="userSpaceOnUse">
<stop stop-color="#D2045B"/>
<stop offset="1" stop-color="#885FA8"/>
</linearGradient>
<linearGradient id="paint1_linear_611_2194" x1="188" y1="65.5" x2="188" y2="95.5" gradientUnits="userSpaceOnUse">
<stop stop-color="#D2045B"/>
<stop offset="1" stop-color="#885FA8"/>
</linearGradient>
<linearGradient id="paint2_linear_611_2194" x1="216" y1="52" x2="216" y2="109" gradientUnits="userSpaceOnUse">
<stop stop-color="#D2045B"/>
<stop offset="1" stop-color="#885FA8"/>
</linearGradient>
<linearGradient id="paint3_linear_611_2194" x1="244" y1="43" x2="244" y2="118" gradientUnits="userSpaceOnUse">
<stop stop-color="#D2045B"/>
<stop offset="1" stop-color="#885FA8"/>
</linearGradient>
<linearGradient id="paint4_linear_611_2194" x1="272" y1="33" x2="272" y2="128" gradientUnits="userSpaceOnUse">
<stop stop-color="#D2045B"/>
<stop offset="1" stop-color="#885FA8"/>
</linearGradient>
<linearGradient id="paint5_linear_611_2194" x1="300" y1="22" x2="300" y2="139" gradientUnits="userSpaceOnUse">
<stop stop-color="#D2045B"/>
<stop offset="1" stop-color="#885FA8"/>
</linearGradient>
<linearGradient id="paint6_linear_611_2194" x1="328" y1="12" x2="328" y2="149" gradientUnits="userSpaceOnUse">
<stop stop-color="#D2045B"/>
<stop offset="1" stop-color="#885FA8"/>
</linearGradient>
<linearGradient id="paint7_linear_611_2194" x1="356" y1="12" x2="356" y2="149" gradientUnits="userSpaceOnUse">
<stop stop-color="#D2045B"/>
<stop offset="1" stop-color="#885FA8"/>
</linearGradient>
<linearGradient id="paint8_linear_611_2194" x1="384" y1="19.5" x2="384" y2="141.5" gradientUnits="userSpaceOnUse">
<stop stop-color="#D2045B"/>
<stop offset="1" stop-color="#885FA8"/>
</linearGradient>
<linearGradient id="paint9_linear_611_2194" x1="412" y1="29" x2="412" y2="132" gradientUnits="userSpaceOnUse">
<stop stop-color="#D2045B"/>
<stop offset="1" stop-color="#885FA8"/>
</linearGradient>
<linearGradient id="paint10_linear_611_2194" x1="440" y1="38.5" x2="440" y2="122.5" gradientUnits="userSpaceOnUse">
<stop stop-color="#D2045B"/>
<stop offset="1" stop-color="#885FA8"/>
</linearGradient>
<linearGradient id="paint11_linear_611_2194" x1="468" y1="51.5" x2="468" y2="109.5" gradientUnits="userSpaceOnUse">
<stop stop-color="#D2045B"/>
<stop offset="1" stop-color="#885FA8"/>
</linearGradient>
<linearGradient id="paint12_linear_611_2194" x1="496" y1="65" x2="496" y2="96" gradientUnits="userSpaceOnUse">
<stop stop-color="#D2045B"/>
<stop offset="1" stop-color="#885FA8"/>
</linearGradient>
<linearGradient id="paint13_linear_611_2194" x1="524" y1="50" x2="524" y2="111" gradientUnits="userSpaceOnUse">
<stop stop-color="#D2045B"/>
<stop offset="1" stop-color="#885FA8"/>
</linearGradient>
<linearGradient id="paint14_linear_611_2194" x1="552" y1="40.5" x2="552" y2="120.5" gradientUnits="userSpaceOnUse">
<stop stop-color="#D2045B"/>
<stop offset="1" stop-color="#885FA8"/>
</linearGradient>
<linearGradient id="paint15_linear_611_2194" x1="580" y1="31.5" x2="580" y2="129.5" gradientUnits="userSpaceOnUse">
<stop stop-color="#D2045B"/>
<stop offset="1" stop-color="#885FA8"/>
</linearGradient>
<linearGradient id="paint16_linear_611_2194" x1="608" y1="22.5" x2="608" y2="138.5" gradientUnits="userSpaceOnUse">
<stop stop-color="#D2045B"/>
<stop offset="1" stop-color="#885FA8"/>
</linearGradient>
<linearGradient id="paint17_linear_611_2194" x1="636" y1="8.5" x2="636" y2="152.5" gradientUnits="userSpaceOnUse">
<stop stop-color="#D2045B"/>
<stop offset="1" stop-color="#885FA8"/>
</linearGradient>
<linearGradient id="paint18_linear_611_2194" x1="664" y1="19.5" x2="664" y2="141.5" gradientUnits="userSpaceOnUse">
<stop stop-color="#D2045B"/>
<stop offset="1" stop-color="#885FA8"/>
</linearGradient>
<linearGradient id="paint19_linear_611_2194" x1="692" y1="8.5" x2="692" y2="152.5" gradientUnits="userSpaceOnUse">
<stop stop-color="#D2045B"/>
<stop offset="1" stop-color="#885FA8"/>
</linearGradient>
<linearGradient id="paint20_linear_611_2194" x1="720" y1="0" x2="720" y2="161" gradientUnits="userSpaceOnUse">
<stop stop-color="#D2045B"/>
<stop offset="1" stop-color="#885FA8"/>
</linearGradient>
<linearGradient id="paint21_linear_611_2194" x1="748" y1="0.5" x2="748" y2="160.5" gradientUnits="userSpaceOnUse">
<stop stop-color="#D2045B"/>
<stop offset="1" stop-color="#885FA8"/>
</linearGradient>
<linearGradient id="paint22_linear_611_2194" x1="776" y1="28" x2="776" y2="133" gradientUnits="userSpaceOnUse">
<stop stop-color="#D2045B"/>
<stop offset="1" stop-color="#885FA8"/>
</linearGradient>
<linearGradient id="paint23_linear_611_2194" x1="804" y1="11" x2="804" y2="150" gradientUnits="userSpaceOnUse">
<stop stop-color="#D2045B"/>
<stop offset="1" stop-color="#885FA8"/>
</linearGradient>
<linearGradient id="paint24_linear_611_2194" x1="832" y1="20.5" x2="832" y2="140.5" gradientUnits="userSpaceOnUse">
<stop stop-color="#D2045B"/>
<stop offset="1" stop-color="#885FA8"/>
</linearGradient>
<linearGradient id="paint25_linear_611_2194" x1="860" y1="30.5" x2="860" y2="130.5" gradientUnits="userSpaceOnUse">
<stop stop-color="#D2045B"/>
<stop offset="1" stop-color="#885FA8"/>
</linearGradient>
<linearGradient id="paint26_linear_611_2194" x1="888" y1="42" x2="888" y2="119" gradientUnits="userSpaceOnUse">
<stop stop-color="#D2045B"/>
<stop offset="1" stop-color="#885FA8"/>
</linearGradient>
<linearGradient id="paint27_linear_611_2194" x1="916" y1="56" x2="916" y2="105" gradientUnits="userSpaceOnUse">
<stop stop-color="#D2045B"/>
<stop offset="1" stop-color="#885FA8"/>
</linearGradient>
<linearGradient id="paint28_linear_611_2194" x1="944" y1="42" x2="944" y2="119" gradientUnits="userSpaceOnUse">
<stop stop-color="#D2045B"/>
<stop offset="1" stop-color="#885FA8"/>
</linearGradient>
<linearGradient id="paint29_linear_611_2194" x1="972" y1="20.5" x2="972" y2="140.5" gradientUnits="userSpaceOnUse">
<stop stop-color="#D2045B"/>
<stop offset="1" stop-color="#885FA8"/>
</linearGradient>
<linearGradient id="paint30_linear_611_2194" x1="1000" y1="31.5" x2="1000" y2="129.5" gradientUnits="userSpaceOnUse">
<stop stop-color="#D2045B"/>
<stop offset="1" stop-color="#885FA8"/>
</linearGradient>
<linearGradient id="paint31_linear_611_2194" x1="1028" y1="43.5" x2="1028" y2="117.5" gradientUnits="userSpaceOnUse">
<stop stop-color="#D2045B"/>
<stop offset="1" stop-color="#885FA8"/>
</linearGradient>
<linearGradient id="paint32_linear_611_2194" x1="1056" y1="54" x2="1056" y2="107" gradientUnits="userSpaceOnUse">
<stop stop-color="#D2045B"/>
<stop offset="1" stop-color="#885FA8"/>
</linearGradient>
<linearGradient id="paint33_linear_611_2194" x1="1084" y1="45.5" x2="1084" y2="115.5" gradientUnits="userSpaceOnUse">
<stop stop-color="#D2045B"/>
<stop offset="1" stop-color="#885FA8"/>
</linearGradient>
<linearGradient id="paint34_linear_611_2194" x1="1112" y1="36.5" x2="1112" y2="124.5" gradientUnits="userSpaceOnUse">
<stop stop-color="#D2045B"/>
<stop offset="1" stop-color="#885FA8"/>
</linearGradient>
<linearGradient id="paint35_linear_611_2194" x1="1140" y1="42.5" x2="1140" y2="118.5" gradientUnits="userSpaceOnUse">
<stop stop-color="#D2045B"/>
<stop offset="1" stop-color="#885FA8"/>
</linearGradient>
<linearGradient id="paint36_linear_611_2194" x1="1168" y1="35.5" x2="1168" y2="125.5" gradientUnits="userSpaceOnUse">
<stop stop-color="#D2045B"/>
<stop offset="1" stop-color="#885FA8"/>
</linearGradient>
<linearGradient id="paint37_linear_611_2194" x1="1196" y1="44.5" x2="1196" y2="116.5" gradientUnits="userSpaceOnUse">
<stop stop-color="#D2045B"/>
<stop offset="1" stop-color="#885FA8"/>
</linearGradient>
<linearGradient id="paint38_linear_611_2194" x1="1224" y1="51.5" x2="1224" y2="109.5" gradientUnits="userSpaceOnUse">
<stop stop-color="#D2045B"/>
<stop offset="1" stop-color="#885FA8"/>
</linearGradient>
<linearGradient id="paint39_linear_611_2194" x1="1252" y1="60" x2="1252" y2="101" gradientUnits="userSpaceOnUse">
<stop stop-color="#D2045B"/>
<stop offset="1" stop-color="#885FA8"/>
</linearGradient>
<linearGradient id="paint40_linear_611_2194" x1="1280" y1="60" x2="1280" y2="101" gradientUnits="userSpaceOnUse">
<stop stop-color="#885FA8"/>
<stop offset="1" stop-color="#D2045B"/>
</linearGradient>
<linearGradient id="paint41_linear_611_2194" x1="1361" y1="78" x2="1361" y2="83" gradientUnits="userSpaceOnUse">
<stop stop-color="#D2045B"/>
<stop offset="1" stop-color="#885FA8"/>
</linearGradient>
</defs>
</svg>
